<?xml version="1.0" encoding="UTF-8" standalone="no"?>
<!-- Created with Inkscape (http://www.inkscape.org/) -->

<svg
   xmlns:dc="http://purl.org/dc/elements/1.1/"
   xmlns:cc="http://creativecommons.org/ns#"
   xmlns:rdf="http://www.w3.org/1999/02/22-rdf-syntax-ns#"
   xmlns:svg="http://www.w3.org/2000/svg"
   xmlns="http://www.w3.org/2000/svg"
   xmlns:sodipodi="http://sodipodi.sourceforge.net/DTD/sodipodi-0.dtd"
   xmlns:inkscape="http://www.inkscape.org/namespaces/inkscape"
   width="100"
   height="100"
   id="svg7500"
   version="1.1"
   inkscape:version="0.48.5 r10040"
   sodipodi:docname="twj-value-added-02.svg">
  <defs
     id="defs7502">
    <filter
       inkscape:label="Inner Shadow"
       inkscape:menu="Shadows and Glows"
       inkscape:menu-tooltip="Adds a colorizable drop shadow inside"
       color-interpolation-filters="sRGB"
       id="filter7278">
      <feGaussianBlur
         stdDeviation="2"
         result="result8"
         id="feGaussianBlur7280" />
      <feOffset
         dx="2"
         dy="4"
         result="result11"
         id="feOffset7282" />
      <feComposite
         result="result6"
         in="SourceGraphic"
         operator="in"
         in2="result11"
         id="feComposite7284" />
      <feFlood
         result="result10"
         in="result6"
         flood-opacity="1"
         flood-color="rgb(0,0,0)"
         id="feFlood7286"
         dy="2" />
      <feBlend
         mode="normal"
         in="result6"
         in2="result10"
         id="feBlend7288" />
      <feComposite
         result="result2"
         operator="in"
         in2="SourceGraphic"
         id="feComposite7290" />
    </filter>
  </defs>
  <sodipodi:namedview
     id="base"
     pagecolor="#ffffff"
     bordercolor="#666666"
     borderopacity="1.0"
     inkscape:pageopacity="0.0"
     inkscape:pageshadow="2"
     inkscape:zoom="5.6"
     inkscape:cx="3.3358007"
     inkscape:cy="62.789199"
     inkscape:document-units="px"
     inkscape:current-layer="layer1"
     showgrid="true"
     inkscape:window-width="1920"
     inkscape:window-height="1018"
     inkscape:window-x="-8"
     inkscape:window-y="-8"
     inkscape:window-maximized="1">
    <inkscape:grid
       type="xygrid"
       id="grid7508"
       empspacing="5"
       visible="true"
       enabled="true"
       snapvisiblegridlinesonly="true" />
  </sodipodi:namedview>
  <metadata
     id="metadata7505">
    <rdf:RDF>
      <cc:Work
         rdf:about="">
        <dc:format>image/svg+xml</dc:format>
        <dc:type
           rdf:resource="http://purl.org/dc/dcmitype/StillImage" />
        <dc:title />
      </cc:Work>
    </rdf:RDF>
  </metadata>
  <g
     inkscape:label="Calque 1"
     inkscape:groupmode="layer"
     id="layer1"
     transform="translate(0,-952.36218)">
    <path
       sodipodi:type="arc"
       style="fill:#eeeeee;fill-opacity:1;stroke:none"
       id="path3001"
       sodipodi:cx="-120"
       sodipodi:cy="37.5"
       sodipodi:rx="35"
       sodipodi:ry="37.5"
       d="m -85,37.5 c 0,20.710678 -15.67003,37.5 -35,37.5 -19.32997,0 -35,-16.789322 -35,-37.5 0,-20.710678 15.67003,-37.5 35,-37.5 19.32997,0 35,16.789322 35,37.5 z"
       transform="matrix(1.4285714,0,0,1.3333333,221.42857,952.36218)" />
    <g
       id="g4686"
       transform="matrix(0.58860924,0,0,0.58860924,20.569832,972.93172)"
       style="fill:#666666;fill-opacity:1;filter:url(#filter7278)">
      <circle
         id="circle4688"
         r="9.5139999"
         cy="17.041"
         cx="23.254999"
         sodipodi:cx="23.254999"
         sodipodi:cy="17.041"
         sodipodi:rx="9.5139999"
         sodipodi:ry="9.5139999"
         d="m 32.768999,17.041 c 0,5.254437 -4.259563,9.514 -9.514,9.514 -5.254437,0 -9.514,-4.259563 -9.514,-9.514 0,-5.254437 4.259563,-9.5139996 9.514,-9.5139996 5.254437,0 9.514,4.2595626 9.514,9.5139996 z"
         style="fill:#666666;fill-opacity:1" />
      <circle
         id="circle4690"
         r="9.5139999"
         cy="17.041"
         cx="76.745003"
         sodipodi:cx="76.745003"
         sodipodi:cy="17.041"
         sodipodi:rx="9.5139999"
         sodipodi:ry="9.5139999"
         d="m 86.259003,17.041 c 0,5.254437 -4.259563,9.514 -9.514,9.514 -5.254437,0 -9.514,-4.259563 -9.514,-9.514 0,-5.254437 4.259563,-9.5139996 9.514,-9.5139996 5.254437,0 9.514,4.2595626 9.514,9.5139996 z"
         style="fill:#666666;fill-opacity:1" />
      <path
         id="path4692"
         d="m 83.885,25.56 c -1.874,1.749 -4.38,2.828 -7.14,2.828 -2.76,0 -5.266,-1.08 -7.14,-2.828 -4.056,1.071 -7.283,4.183 -8.522,8.164 C 57.578,33.078 53.856,32.728 50,32.728 c -3.856,0 -7.578,0.35 -11.083,0.996 -1.239,-3.981 -4.467,-7.093 -8.522,-8.164 -1.874,1.748 -4.38,2.827 -7.14,2.827 -2.76,0 -5.266,-1.079 -7.14,-2.827 -5.216,1.378 -9.078,6.123 -9.078,11.765 V 47.2 l 0.025,0.153 0.681,0.213 c 2.123,0.663 4.144,1.168 6.077,1.563 -0.891,1.909 -1.377,3.919 -1.377,5.995 0,8.967 8.885,16.715 21.676,20.289 -0.472,1.295 -0.734,2.69 -0.734,4.147 v 9.875 l 0.025,0.154 0.681,0.213 c 6.409,2.002 11.979,2.671 16.563,2.671 8.953,0 14.142,-2.554 14.462,-2.716 l 0.637,-0.322 h 0.068 V 79.56 c 0,-1.384 -0.235,-2.713 -0.663,-3.952 13.178,-3.482 22.398,-11.351 22.398,-20.484 0,-1.978 -0.437,-3.895 -1.248,-5.722 3.678,-0.761 5.75,-1.779 5.949,-1.88 l 0.637,-0.323 0.068,0.001 V 37.325 C 92.963,31.683 89.101,26.938 83.885,25.56 z m 1.077,29.564 c 0,8.091 -8.616,15.06 -20.92,18.129 -1.62,-2.652 -4.219,-4.645 -7.298,-5.457 -1.874,1.748 -4.38,2.827 -7.14,2.827 -2.759,0 -5.266,-1.079 -7.14,-2.827 -3.011,0.795 -5.565,2.717 -7.191,5.281 C 23.336,69.923 15.039,63.063 15.039,55.124 c 0,-1.915 0.492,-3.766 1.392,-5.519 2.874,0.448 5.508,0.632 7.875,0.632 8.953,0 14.142,-2.553 14.462,-2.715 l 0.637,-0.323 0.068,0.001 v -9.876 c 0,-0.361 -0.017,-0.72 -0.048,-1.073 3.338,-0.602 6.89,-0.929 10.575,-0.929 3.686,0 7.238,0.327 10.576,0.929 -0.031,0.354 -0.048,0.712 -0.048,1.074 V 47.2 l 0.025,0.154 0.681,0.213 c 6.409,2.001 11.979,2.67 16.562,2.67 2.199,0 4.167,-0.154 5.896,-0.39 0.821,1.682 1.27,3.45 1.27,5.277 z"
         inkscape:connector-curvature="0"
         style="fill:#666666;fill-opacity:1" />
      <circle
         id="circle4694"
         r="9.5139999"
         cy="59.277"
         cx="49.604"
         sodipodi:cx="49.604"
         sodipodi:cy="59.277"
         sodipodi:rx="9.5139999"
         sodipodi:ry="9.5139999"
         d="m 59.118,59.277 c 0,5.254438 -4.259563,9.514 -9.514,9.514 -5.254437,0 -9.514,-4.259562 -9.514,-9.514 0,-5.254437 4.259563,-9.514 9.514,-9.514 5.254437,0 9.514,4.259563 9.514,9.514 z"
         style="fill:#666666;fill-opacity:1" />
    </g>
  </g>
</svg>
