<?xml version="1.0" encoding="UTF-8" standalone="no"?>
<!-- Created with Inkscape (http://www.inkscape.org/) -->

<svg
   xmlns:dc="http://purl.org/dc/elements/1.1/"
   xmlns:cc="http://creativecommons.org/ns#"
   xmlns:rdf="http://www.w3.org/1999/02/22-rdf-syntax-ns#"
   xmlns:svg="http://www.w3.org/2000/svg"
   xmlns="http://www.w3.org/2000/svg"
   xmlns:sodipodi="http://sodipodi.sourceforge.net/DTD/sodipodi-0.dtd"
   xmlns:inkscape="http://www.inkscape.org/namespaces/inkscape"
   width="100"
   height="100"
   id="svg8031"
   version="1.1"
   inkscape:version="0.48.5 r10040"
   sodipodi:docname="twj-value-added-03.svg">
  <defs
     id="defs8033">
    <filter
       inkscape:label="Inner Shadow"
       inkscape:menu="Shadows and Glows"
       inkscape:menu-tooltip="Adds a colorizable drop shadow inside"
       color-interpolation-filters="sRGB"
       id="filter7308">
      <feGaussianBlur
         stdDeviation="2"
         result="result8"
         id="feGaussianBlur7310" />
      <feOffset
         dx="2"
         dy="2"
         result="result11"
         id="feOffset7312" />
      <feComposite
         result="result6"
         in="SourceGraphic"
         operator="in"
         in2="result11"
         id="feComposite7314" />
      <feFlood
         result="result10"
         in="result6"
         flood-opacity="1"
         flood-color="rgb(0,0,0)"
         id="feFlood7316" />
      <feBlend
         mode="normal"
         in="result6"
         in2="result10"
         id="feBlend7318" />
      <feComposite
         result="result2"
         operator="in"
         in2="SourceGraphic"
         id="feComposite7320" />
    </filter>
  </defs>
  <sodipodi:namedview
     id="base"
     pagecolor="#ffffff"
     bordercolor="#666666"
     borderopacity="1.0"
     inkscape:pageopacity="0.0"
     inkscape:pageshadow="2"
     inkscape:zoom="3.959798"
     inkscape:cx="-24.434721"
     inkscape:cy="67.653783"
     inkscape:document-units="px"
     inkscape:current-layer="layer1"
     showgrid="true"
     inkscape:window-width="1920"
     inkscape:window-height="1018"
     inkscape:window-x="-8"
     inkscape:window-y="-8"
     inkscape:window-maximized="1">
    <inkscape:grid
       type="xygrid"
       id="grid8039"
       empspacing="5"
       visible="true"
       enabled="true"
       snapvisiblegridlinesonly="true" />
  </sodipodi:namedview>
  <metadata
     id="metadata8036">
    <rdf:RDF>
      <cc:Work
         rdf:about="">
        <dc:format>image/svg+xml</dc:format>
        <dc:type
           rdf:resource="http://purl.org/dc/dcmitype/StillImage" />
        <dc:title />
      </cc:Work>
    </rdf:RDF>
  </metadata>
  <g
     inkscape:label="Calque 1"
     inkscape:groupmode="layer"
     id="layer1"
     transform="translate(0,-952.36218)">
    <path
       sodipodi:type="arc"
       style="fill:#eeeeee;fill-opacity:1;stroke:none"
       id="path3001"
       sodipodi:cx="-120"
       sodipodi:cy="37.5"
       sodipodi:rx="35"
       sodipodi:ry="37.5"
       d="m -85,37.5 c 0,20.710678 -15.67003,37.5 -35,37.5 -19.32997,0 -35,-16.789322 -35,-37.5 0,-20.710678 15.67003,-37.5 35,-37.5 19.32997,0 35,16.789322 35,37.5 z"
       transform="matrix(1.4285714,0,0,1.3333333,221.42857,952.36218)" />
    <path
       id="path5244"
       d="m 56.999999,1002.3622 c 0,2 1,6 5,6 4,0 5,-3 6,-3 0.35,0 0.7,0.12 1,0.36 v 9.64 c 0,0 -5,-1 -7,-1 -2,0 -3,1 -3,2 0,1 3,2 3,6 0,4 -4,5 -6,5 -1.999998,0 -5.999998,-1 -5.999998,-5 0,-4 3,-5 3,-6 0,-1 -1,-2 -3,-2 -2,0 -7,1 -7,1 0,0 1,-5 1,-7 0,-2 -1,-3 -2,-3 -1,0 -2,3 -6,3 -4,0 -5,-4 -5,-6 0,-2 1,-6.00002 5,-6.00002 4,0 5,3 6,3 1,0 2,-1 2,-3 0,-2 -1,-7 -1,-7 0,0 5,1 7,1 2,0 3,-1 3,-2 0,-1 -3,-2 -3,-6 0,-4 4,-5 5.999998,-5 2,0 6,1 6,5 0,4 -3,5 -3,6 0,1 1,2 3,2 2,0 7,-1 7,-1 v 9.64 c -0.3,0.24 -0.65,0.36 -1,0.36 -1,0 -2,-3 -6,-3 -4,0 -5,4.00002 -5,6.00002 z"
       inkscape:connector-curvature="0"
       style="fill:#666666;fill-opacity:1;filter:url(#filter7308)" />
  </g>
</svg>
