<?xml version="1.0" encoding="UTF-8" standalone="no"?>
<!-- Generator: Adobe Illustrator 17.1.0, SVG Export Plug-In . SVG Version: 6.00 Build 0)  -->

<svg
   xmlns:dc="http://purl.org/dc/elements/1.1/"
   xmlns:cc="http://creativecommons.org/ns#"
   xmlns:rdf="http://www.w3.org/1999/02/22-rdf-syntax-ns#"
   xmlns:svg="http://www.w3.org/2000/svg"
   xmlns="http://www.w3.org/2000/svg"
   xmlns:sodipodi="http://sodipodi.sourceforge.net/DTD/sodipodi-0.dtd"
   xmlns:inkscape="http://www.inkscape.org/namespaces/inkscape"
   version="1.1"
   id="Layer_1"
   x="0px"
   y="0px"
   width="1000px"
   height="1000px"
   viewBox="0 0 1000 1000"
   enable-background="new 0 0 1000 1000"
   xml:space="preserve"
   inkscape:version="0.48.5 r10040"
   sodipodi:docname="accounting.svg"><metadata
   id="metadata3065"><rdf:RDF><cc:Work
       rdf:about=""><dc:format>image/svg+xml</dc:format><dc:type
         rdf:resource="http://purl.org/dc/dcmitype/StillImage" /></cc:Work></rdf:RDF></metadata><defs
   id="defs3063" /><sodipodi:namedview
   pagecolor="#ffffff"
   bordercolor="#666666"
   borderopacity="1"
   objecttolerance="10"
   gridtolerance="10"
   guidetolerance="10"
   inkscape:pageopacity="0"
   inkscape:pageshadow="2"
   inkscape:window-width="1920"
   inkscape:window-height="1018"
   id="namedview3061"
   showgrid="false"
   inkscape:zoom="0.59962655"
   inkscape:cx="146.54233"
   inkscape:cy="653.15461"
   inkscape:window-x="-8"
   inkscape:window-y="-8"
   inkscape:window-maximized="1"
   inkscape:current-layer="Layer_1" />
<g
   id="g3037"
   transform="matrix(1.0235415,0,0,1.0235415,-11.770238,-11.258979)"
   style="fill:#000000;fill-opacity:1">
	<path
   d="M 320.661,566.656 H 679.339 V 404.366 H 320.661 v 162.29 z m 68,-94.29 h 222.678 v 26.29 H 388.661 v -26.29 z"
   id="path3039"
   inkscape:connector-curvature="0"
   style="fill:#000000;fill-opacity:1" />
	<rect
   x="323.72101"
   y="602.24298"
   width="92.896004"
   height="68"
   id="rect3041"
   style="fill:#000000;fill-opacity:1" />
	<rect
   x="453.552"
   y="602.24298"
   width="92.896004"
   height="68"
   id="rect3043"
   style="fill:#000000;fill-opacity:1" />
	<rect
   x="583.38397"
   y="602.24298"
   width="92.896004"
   height="68"
   id="rect3045"
   style="fill:#000000;fill-opacity:1" />
	<rect
   x="323.72101"
   y="707.86499"
   width="92.896004"
   height="68"
   id="rect3047"
   style="fill:#000000;fill-opacity:1" />
	<rect
   x="453.552"
   y="707.86499"
   width="92.896004"
   height="68"
   id="rect3049"
   style="fill:#000000;fill-opacity:1" />
	<rect
   x="583.38397"
   y="707.86499"
   width="92.896004"
   height="68"
   id="rect3051"
   style="fill:#000000;fill-opacity:1" />
	<rect
   x="323.72101"
   y="813.48602"
   width="92.896004"
   height="68"
   id="rect3053"
   style="fill:#000000;fill-opacity:1" />
	<rect
   x="453.552"
   y="813.48602"
   width="92.896004"
   height="68"
   id="rect3055"
   style="fill:#000000;fill-opacity:1" />
	<rect
   x="583.38397"
   y="813.48602"
   width="92.896004"
   height="68"
   id="rect3057"
   style="fill:#000000;fill-opacity:1" />
	<path
   d="M 660.604,108.036 563.516,11 H 340.426 V 213.765 H 207.969 V 988 H 792.03 V 213.765 H 660.604 V 108.036 z m -68,105.729 v 68 24.573 H 408.426 v -24.573 -68 V 79 H 535.36 l 57.245,57.214 v 77.551 z m 131.426,68 V 920 H 275.969 V 281.765 h 64.457 v 25.848 h -27.647 v 68 h 374.442 v -68 h -26.616 v -25.848 h 63.425 z"
   id="path3059"
   inkscape:connector-curvature="0"
   style="fill:#000000;fill-opacity:1" />
</g>
</svg>