<?xml version="1.0" encoding="UTF-8" standalone="no"?>
<!-- Generator: Adobe Illustrator 16.0.0, SVG Export Plug-In . SVG Version: 6.00 Build 0)  -->

<svg
   xmlns:dc="http://purl.org/dc/elements/1.1/"
   xmlns:cc="http://creativecommons.org/ns#"
   xmlns:rdf="http://www.w3.org/1999/02/22-rdf-syntax-ns#"
   xmlns:svg="http://www.w3.org/2000/svg"
   xmlns="http://www.w3.org/2000/svg"
   xmlns:sodipodi="http://sodipodi.sourceforge.net/DTD/sodipodi-0.dtd"
   xmlns:inkscape="http://www.inkscape.org/namespaces/inkscape"
   version="1.1"
   id="Layer_9"
   x="0px"
   y="0px"
   width="1000"
   height="1000"
   viewBox="0 0 1000 1000"
   enable-background="new 0 0 100 100"
   xml:space="preserve"
   inkscape:version="0.48.5 r10040"
   sodipodi:docname="box.svg"><metadata
   id="metadata3063"><rdf:RDF><cc:Work
       rdf:about=""><dc:format>image/svg+xml</dc:format><dc:type
         rdf:resource="http://purl.org/dc/dcmitype/StillImage" /></cc:Work></rdf:RDF></metadata><defs
   id="defs3061" /><sodipodi:namedview
   pagecolor="#ffffff"
   bordercolor="#666666"
   borderopacity="1"
   objecttolerance="10"
   gridtolerance="10"
   guidetolerance="10"
   inkscape:pageopacity="0"
   inkscape:pageshadow="2"
   inkscape:window-width="1920"
   inkscape:window-height="1058"
   id="namedview3059"
   showgrid="false"
   inkscape:zoom="0.417193"
   inkscape:cx="119.2645"
   inkscape:cy="216.83475"
   inkscape:window-x="1912"
   inkscape:window-y="-8"
   inkscape:window-maximized="1"
   inkscape:current-layer="Layer_9" />
<path
   d="m 1000,467.14475 -97.82215,-210.63318 -1.40965,0.64663 v -4.0867 l -0.90529,0.3621 0.58197,-1.46139 L 520.00672,97.013865 107.75438,253.60172 l -1.31912,-0.5173 v 0.24573 L 0,409.94388 106.43526,400.55481 V 751.32559 L 489.4082,902.39124 v 0.5949 h 28.36119 v -0.5949 L 900.74233,751.32559 V 509.79643 L 1000,467.14475 z M 520.58869,403.03786 520.56283,127.87104 863.78097,267.69826 520.58869,403.03786 z M 489.42114,871.88324 134.80937,732.01723 V 294.76618 L 489.42114,434.64512 V 871.88324 z M 872.39408,732.01723 517.78232,871.87031 V 434.65807 L 595.72707,640.9071 872.39408,521.99188 v 210.02535 z"
   id="path3057"
   inkscape:connector-curvature="0" />
</svg>