<?xml version="1.0" encoding="UTF-8" standalone="no"?>
<!-- Generator: Adobe Illustrator 16.0.4, SVG Export Plug-In . SVG Version: 6.00 Build 0)  -->

<svg
   xmlns:dc="http://purl.org/dc/elements/1.1/"
   xmlns:cc="http://creativecommons.org/ns#"
   xmlns:rdf="http://www.w3.org/1999/02/22-rdf-syntax-ns#"
   xmlns:svg="http://www.w3.org/2000/svg"
   xmlns="http://www.w3.org/2000/svg"
   xmlns:sodipodi="http://sodipodi.sourceforge.net/DTD/sodipodi-0.dtd"
   xmlns:inkscape="http://www.inkscape.org/namespaces/inkscape"
   version="1.1"
   id="Capa_1"
   x="0px"
   y="0px"
   width="1000"
   height="1000"
   viewBox="0 0 1000 1000"
   enable-background="new 0 0 21.854 23.303"
   xml:space="preserve"
   inkscape:version="0.48.5 r10040"
   sodipodi:docname="customer-space.svg"><metadata
   id="metadata3139"><rdf:RDF><cc:Work
       rdf:about=""><dc:format>image/svg+xml</dc:format><dc:type
         rdf:resource="http://purl.org/dc/dcmitype/StillImage" /></cc:Work></rdf:RDF></metadata><defs
   id="defs3137" /><sodipodi:namedview
   pagecolor="#ffffff"
   bordercolor="#666666"
   borderopacity="1"
   objecttolerance="10"
   gridtolerance="10"
   guidetolerance="10"
   inkscape:pageopacity="0"
   inkscape:pageshadow="2"
   inkscape:window-width="1920"
   inkscape:window-height="1018"
   id="namedview3135"
   showgrid="false"
   inkscape:zoom="0.63296573"
   inkscape:cx="57.167126"
   inkscape:cy="520.54137"
   inkscape:window-x="-8"
   inkscape:window-y="-8"
   inkscape:window-maximized="1"
   inkscape:current-layer="Capa_1" />
<g
   id="g3121"
   transform="matrix(45.193655,0,0,45.193655,32.765314,-2.0925e-6)">
	<path
   d="m 1.261,16.6 c 0,-1.12 0,-14.221 0,-15.341 1.108,0 12.928,0 14.036,0 0,0.396 0,2.292 0,4.623 0.271,-0.05 0.549,-0.084 0.834,-0.084 0.146,0 0.284,0.03 0.427,0.043 V 0 H 0 V 17.86 H 10.414 V 16.6 c -3.79,0 -8.475,0 -9.153,0 z"
   id="path3123"
   inkscape:connector-curvature="0" />
	<path
   d="m 3.054,9.589 h 8.553 C 11.692,9.118 11.858,8.68 12.075,8.27 H 3.054 v 1.319 z"
   id="path3125"
   inkscape:connector-curvature="0" />
	<rect
   x="3.0539999"
   y="4.1459999"
   width="10.448"
   height="1.319"
   id="rect3127" />
	<path
   d="m 3.054,13.714 h 8.867 c 0.237,-0.143 0.49,-0.261 0.761,-0.333 -0.257,-0.299 -0.468,-0.635 -0.649,-0.987 H 3.054 v 1.32 z"
   id="path3129"
   inkscape:connector-curvature="0" />
	<path
   d="m 16.132,13.846 c 1.904,0 3.438,-1.539 3.438,-3.437 0,-1.9 -1.534,-3.438 -3.438,-3.438 -1.896,0 -3.431,1.538 -3.431,3.438 0,1.898 1.535,3.437 3.431,3.437 z"
   id="path3131"
   inkscape:connector-curvature="0" />
	<path
   d="m 18.89,14.404 h -5.509 c -0.984,0 -1.79,0.903 -1.79,2.013 v 5.532 c 0,0.061 0.028,0.116 0.032,0.178 h 9.021 c 0.005,-0.062 0.033,-0.117 0.033,-0.178 v -5.532 c 0.002,-1.109 -0.801,-2.013 -1.787,-2.013 z"
   id="path3133"
   inkscape:connector-curvature="0" />
</g>
</svg>