<?xml version="1.0" encoding="UTF-8" standalone="no"?>
<!-- Generator: Adobe Illustrator 16.0.0, SVG Export Plug-In . SVG Version: 6.00 Build 0)  -->

<svg
   xmlns:dc="http://purl.org/dc/elements/1.1/"
   xmlns:cc="http://creativecommons.org/ns#"
   xmlns:rdf="http://www.w3.org/1999/02/22-rdf-syntax-ns#"
   xmlns:svg="http://www.w3.org/2000/svg"
   xmlns="http://www.w3.org/2000/svg"
   xmlns:sodipodi="http://sodipodi.sourceforge.net/DTD/sodipodi-0.dtd"
   xmlns:inkscape="http://www.inkscape.org/namespaces/inkscape"
   version="1.1"
   id="Layer_4"
   x="0px"
   y="0px"
   width="1000"
   height="1000"
   viewBox="0 0 1000 1000"
   enable-background="new 0 0 100 100"
   xml:space="preserve"
   inkscape:version="0.48.5 r10040"
   sodipodi:docname="dailymotion.svg"><metadata
   id="metadata3035"><rdf:RDF><cc:Work
       rdf:about=""><dc:format>image/svg+xml</dc:format><dc:type
         rdf:resource="http://purl.org/dc/dcmitype/StillImage" /></cc:Work></rdf:RDF></metadata><defs
   id="defs3033" /><sodipodi:namedview
   pagecolor="#ffffff"
   bordercolor="#666666"
   borderopacity="1"
   objecttolerance="10"
   gridtolerance="10"
   guidetolerance="10"
   inkscape:pageopacity="0"
   inkscape:pageshadow="2"
   inkscape:window-width="1920"
   inkscape:window-height="1018"
   id="namedview3031"
   showgrid="false"
   inkscape:zoom="0.295"
   inkscape:cx="44.558173"
   inkscape:cy="566.77954"
   inkscape:window-x="-8"
   inkscape:window-y="-8"
   inkscape:window-maximized="1"
   inkscape:current-layer="Layer_4" />
<g
   id="g3017"
   transform="matrix(10,0,0,10,-0.005,0)">
	<path
   d="M 84.701,90.36 77.418,55.174 74.439,54.042 71.073,55.328 70.198,49.956 64.015,47.546 61.936,27.361 65.146,24.236 52.162,15.815 51.278,1.228 50.084,14.469 49.435,14.047 v 0.013 l -10.17,13.153 2.396,1.75 -1.301,10.41 -1.982,-0.306 -1.448,2.157 -1.69,10.263 -7.028,-1.447 v -0.002 l -0.003,0.002 -0.01,-0.002 -0.004,0.015 -2.396,2.231 -1.137,5.136 -1.354,1.115 -7.855,28.455 -0.153,0.325 4.155,4.078 0.089,0.09 10.648,-1.033 -0.397,2.153 5.21,2.254 1.209,-0.334 -0.054,0.011 0.294,-0.08 -0.081,0.964 8.415,3.354 0.008,-0.004 17.064,-2.719 v -0.886 l 2.325,0.324 -0.075,-0.147 0.003,0.059 -0.011,-0.073 0.008,0.014 9.133,-1.545 -0.244,-1.913 0.166,0.074 2.719,0.724 3.761,-0.724 -0.113,-0.643 5.169,-0.953 z m -65.525,0.053 -3.266,-3.205 0.019,-0.04 0.013,-0.042 7.812,-28.301 1.23,-1.013 0.136,-0.112 0.037,-0.17 1.104,-4.982 1.108,-1.041 -8.193,38.906 z M 48.08,50.337 47.887,50.28 47.28,50.104 l -0.039,0.632 -2.916,47.307 -7.409,-2.953 2.193,-20.577 3.276,-10.607 0.02,-0.057 0.002,-0.059 0.327,-4.971 0.022,-0.323 -0.286,-0.155 -2.818,-1.525 -0.489,-0.265 -0.161,-0.136 -0.006,0.045 -0.089,-0.049 v 0.82 l -0.015,0.117 -4.32,36.769 -4.206,-1.819 6.305,-34.25 1.62,-0.985 0.146,-0.07 0.248,-0.121 0.033,-0.272 3.447,-27.576 0.037,-0.295 -0.24,-0.176 -1.977,-1.444 9.095,-11.763 0.327,2.745 -1.327,32.246 z m 11.805,5.933 -1.708,-0.624 -0.167,-5.12 2.41,0.634 0.235,4.035 -0.806,0.377 0.036,0.698 z m -1.708,-7.184 -0.167,-4.494 2.41,1.034 0.32,4.412 -2.563,-0.952 z m 1.522,-15.562 -2.166,-1.115 v -3.297 l 2.083,1.14 0.083,3.272 z m -6.491,-11.534 2.168,1.116 0.082,3.605 -2.25,-1.205 V 21.99 z m 0.084,4.884 2.312,1.213 0.082,3.354 -2.478,-1.188 0.084,-3.379 z m 2.394,5.925 0.158,3.532 -2.552,-1.204 -0.084,-3.524 2.478,1.196 z m 0.324,9.304 -2.718,-1.115 v -4.656 l 2.552,1.205 0.166,4.566 z m 0.242,13.071 -0.566,-0.163 -10e-4,0.004 0.082,-1.844 -2.475,-0.744 v -3.676 l 2.96,1.213 v 5.21 z m -2.96,-8.026 0.061,-4.647 2.739,1.123 0.16,4.648 -2.96,-1.124 z m 4.001,-22.992 1.998,1.033 0.167,3.614 -2.083,-1.042 -0.082,-3.605 z m 0.24,9.612 2.238,1.131 0.248,3.435 -2.323,-1.042 -0.163,-3.524 z m 0.248,4.818 2.312,1.114 0.327,4.323 -2.492,-1.033 -0.147,-4.404 z m 0.396,24.516 -0.167,-5.21 1.999,0.845 0.258,5.067 -2.09,-0.702 z m 4.159,31.617 -1.963,-38.831 0.739,-0.347 2.41,39.343 -1.186,-0.165 z m 13.566,-2.558 -2.451,-0.653 -0.515,-3.237 -0.085,-0.527 -0.521,0.111 -0.644,0.137 -3.709,-31.842 -0.04,-0.352 -0.344,-0.083 -2.296,-0.55 -0.694,-6.845 5.139,2.002 1.4,9.016 0.047,0.305 0.292,0.098 2.123,0.71 5.454,31.102 -3.156,0.608 z"
   id="path3019"
   inkscape:connector-curvature="0" />
	<path
   d="m 40.256,49.465 -0.179,0.125 -0.03,0.214 -0.168,1.124 -0.172,1.163 0.964,-0.674 6.647,-4.646 0.217,-0.152 v -0.264 -1.034 -0.975 l -0.798,0.561 -6.481,4.558 z m 6.773,-3.109 -6.649,4.647 0.166,-1.124 6.483,-4.558 v 1.035 z"
   id="path3021"
   inkscape:connector-curvature="0" />
	<path
   d="m 47.782,35.253 0.14,-0.134 0.016,-0.193 0.085,-1.106 0.102,-1.304 -0.953,0.896 -5.616,5.283 -0.132,0.124 -0.022,0.18 -0.168,1.286 -0.184,1.425 1.037,-0.994 5.695,-5.463 z m -5.881,3.81 5.617,-5.282 -0.085,1.107 -5.698,5.461 0.166,-1.286 z"
   id="path3023"
   inkscape:connector-curvature="0" />
	<path
   d="m 48.265,25.802 0.154,-0.149 v -0.215 -1.196 -1.204 l -0.86,0.843 -4.729,4.631 -0.126,0.125 -0.022,0.177 -0.153,1.294 -0.17,1.416 1.024,-0.992 4.882,-4.73 z m -5.081,3.071 4.729,-4.631 v 1.196 l -4.883,4.729 0.154,-1.294 z"
   id="path3025"
   inkscape:connector-curvature="0" />
	<path
   d="m 48.028,30.527 0.14,-0.136 0.011,-0.195 0.072,-1.294 0.077,-1.36 -0.946,0.979 -5.197,5.38 -0.101,0.105 -0.03,0.143 -0.253,1.205 -0.343,1.64 1.193,-1.175 5.377,-5.292 z m -5.479,3.725 5.197,-5.38 -0.073,1.294 -5.376,5.29 0.252,-1.204 z"
   id="path3027"
   inkscape:connector-curvature="0" />
	<path
   d="m 40.945,43.8 -0.16,0.132 -0.021,0.205 -0.104,0.971 -0.13,1.206 0.948,-0.756 6.033,-4.813 0.174,-0.138 0.015,-0.221 0.069,-0.969 V 39.41 l 0.002,-0.007 0.007,-0.146 0.052,-1.139 -0.88,0.726 -6.005,4.956 z m 6.321,-4.42 -0.07,0.968 -6.033,4.813 0.104,-0.972 6.006,-4.956 -0.007,0.147 z"
   id="path3029"
   inkscape:connector-curvature="0" />
</g>
</svg>