<?xml version="1.0" encoding="UTF-8" standalone="no"?>
<!-- Generator: Adobe Illustrator 16.0.0, SVG Export Plug-In . SVG Version: 6.00 Build 0)  -->

<svg
   xmlns:dc="http://purl.org/dc/elements/1.1/"
   xmlns:cc="http://creativecommons.org/ns#"
   xmlns:rdf="http://www.w3.org/1999/02/22-rdf-syntax-ns#"
   xmlns:svg="http://www.w3.org/2000/svg"
   xmlns="http://www.w3.org/2000/svg"
   xmlns:sodipodi="http://sodipodi.sourceforge.net/DTD/sodipodi-0.dtd"
   xmlns:inkscape="http://www.inkscape.org/namespaces/inkscape"
   version="1.1"
   id="Layer_1"
   x="0px"
   y="0px"
   width="1000"
   height="1000"
   viewBox="0 0 1000 1000"
   enable-background="new 0 0 50 50"
   xml:space="preserve"
   inkscape:version="0.48.5 r10040"
   sodipodi:docname="funding.svg"><metadata
   id="metadata3157"><rdf:RDF><cc:Work
       rdf:about=""><dc:format>image/svg+xml</dc:format><dc:type
         rdf:resource="http://purl.org/dc/dcmitype/StillImage" /></cc:Work></rdf:RDF></metadata><defs
   id="defs3155" /><sodipodi:namedview
   pagecolor="#ffffff"
   bordercolor="#666666"
   borderopacity="1"
   objecttolerance="10"
   gridtolerance="10"
   guidetolerance="10"
   inkscape:pageopacity="0"
   inkscape:pageshadow="2"
   inkscape:window-width="1920"
   inkscape:window-height="1018"
   id="namedview3153"
   showgrid="false"
   inkscape:zoom="0.2085965"
   inkscape:cx="-444.33628"
   inkscape:cy="218.40148"
   inkscape:window-x="-8"
   inkscape:window-y="-8"
   inkscape:window-maximized="1"
   inkscape:current-layer="Layer_1" />

<g
   id="Layer_8"
   transform="matrix(11.154365,0,0,11.154365,-95.559433,-139.78091)">
	<path
   id="path4319"
   d="M 47.392,63.833 C 47.138,65.041 47,66.291 47,67.573 c 0,0.425 0.035,0.842 0.064,1.26 H 11.067 c -1.381,0 -2.5,-1.119 -2.5,-2.5 v -38.35 c 0,-1.381 1.119,-2.5 2.5,-2.5 h 77.867 c 1.381,0 2.5,1.119 2.5,2.5 v 29.855 l -5,-1.889 V 37.984 c -0.693,0.289 -1.453,0.45 -2.25,0.45 -3.231,0 -5.851,-2.619 -5.851,-5.85 0,-0.741 0.144,-1.448 0.396,-2.101 H 21.123 c 0.251,0.653 0.395,1.359 0.395,2.101 0,3.231 -2.619,5.85 -5.85,5.85 -0.741,0 -1.448,-0.144 -2.101,-0.395 v 17.855 c 0.653,-0.25 1.359,-0.395 2.101,-0.395 3.231,0 5.85,2.619 5.85,5.85 0,0.89 -0.204,1.729 -0.559,2.483 H 47.392 z M 54.505,52.91 h -9.622 c 0,-2.301 1.375,-4.274 3.346,-5.158 -1.264,-0.707 -2.12,-2.057 -2.12,-3.609 0,-2.284 1.851,-4.135 4.135,-4.135 2.283,0 4.135,1.852 4.135,4.135 0,1.454 -0.752,2.73 -1.888,3.468 1.844,0.681 3.229,2.294 3.595,4.268 1.506,-0.873 3.146,-1.531 4.885,-1.942 0.187,-0.805 0.286,-1.641 0.286,-2.502 0,-3.679 -1.786,-6.932 -4.53,-8.967 h 5.314 v -5.5 H 37.958 v 5.5 h 5.497 c -2.745,2.035 -4.531,5.288 -4.531,8.967 0,3.362 1.493,6.37 3.844,8.417 h -4.81 v 5.5 h 10.165 c 1.252,-3.413 3.492,-6.34 6.382,-8.442 z m 10.636,26.606 c -6.504,0 -11.775,-5.271 -11.775,-11.775 0,-6.504 5.271,-11.775 11.775,-11.775 3.389,0 6.435,1.439 8.582,3.73 0.996,-0.602 2.057,-1.104 3.172,-1.489 C 74.12,54.79 69.887,52.603 65.141,52.603 56.779,52.602 50,59.379 50,67.741 c 0,8.362 6.777,15.14 15.141,15.14 0.945,0 1.868,-0.098 2.767,-0.264 -0.591,-0.999 -1.083,-2.061 -1.459,-3.178 -0.431,0.047 -0.867,0.077 -1.308,0.077 z m 2.798,-20.565 h -3.088 l -0.131,0.683 c -0.179,0.937 -0.729,2.181 -3.433,2.181 h -0.841 v 3.269 h 0.841 c 1.169,0 2.147,-0.12 2.952,-0.364 v 11.924 h 1.535 c -0.129,-0.834 -0.215,-1.683 -0.215,-2.552 0,-3.136 0.877,-6.063 2.377,-8.579 v -6.561 h 0.003 z m 30.279,15.14 c 0,8.361 -6.778,15.14 -15.14,15.14 -8.362,0 -15.141,-6.777 -15.141,-15.14 0,-8.363 6.778,-15.14 15.141,-15.14 8.361,0 15.14,6.778 15.14,15.14 z m -3.364,0 c 0,-6.503 -5.271,-11.774 -11.774,-11.774 -6.503,0 -11.774,5.271 -11.774,11.774 0,6.503 5.271,11.775 11.774,11.775 6.503,0 11.774,-5.272 11.774,-11.775 z M 82.66,65.982 c -0.18,0.937 -0.73,2.182 -3.434,2.182 h -0.84 v 3.27 h 0.84 c 1.17,0 2.147,-0.121 2.953,-0.363 v 11.923 h 3.698 V 65.301 H 82.79 l -0.13,0.681 z"
   inkscape:connector-curvature="0" />
</g></svg>