<?xml version="1.0" encoding="UTF-8" standalone="no"?>
<!-- Generator: Adobe Illustrator 16.0.4, SVG Export Plug-In . SVG Version: 6.00 Build 0)  -->

<svg
   xmlns:dc="http://purl.org/dc/elements/1.1/"
   xmlns:cc="http://creativecommons.org/ns#"
   xmlns:rdf="http://www.w3.org/1999/02/22-rdf-syntax-ns#"
   xmlns:svg="http://www.w3.org/2000/svg"
   xmlns="http://www.w3.org/2000/svg"
   xmlns:sodipodi="http://sodipodi.sourceforge.net/DTD/sodipodi-0.dtd"
   xmlns:inkscape="http://www.inkscape.org/namespaces/inkscape"
   version="1.1"
   id="Layer_1"
   x="0px"
   y="0px"
   width="1000"
   height="1000"
   viewBox="0 0 1000 1000"
   enable-background="new 0 0 112 83.992"
   xml:space="preserve"
   inkscape:version="0.48.5 r10040"
   sodipodi:docname="handshake.svg"><metadata
   id="metadata3175"><rdf:RDF><cc:Work
       rdf:about=""><dc:format>image/svg+xml</dc:format><dc:type
         rdf:resource="http://purl.org/dc/dcmitype/StillImage" /></cc:Work></rdf:RDF></metadata><defs
   id="defs3173" /><sodipodi:namedview
   pagecolor="#ffffff"
   bordercolor="#666666"
   borderopacity="1"
   objecttolerance="10"
   gridtolerance="10"
   guidetolerance="10"
   inkscape:pageopacity="0"
   inkscape:pageshadow="2"
   inkscape:window-width="1920"
   inkscape:window-height="1018"
   id="namedview3171"
   showgrid="false"
   inkscape:zoom="0.45141192"
   inkscape:cx="-216.79249"
   inkscape:cy="250.1465"
   inkscape:window-x="-8"
   inkscape:window-y="-8"
   inkscape:window-maximized="1"
   inkscape:current-layer="Layer_1" />
<path
   d="m 1000,217.94905 v 314.08036 c 0,0 -64.79464,13.20535 -78.125,14.96428 -13.33036,1.74107 -55.08929,15.69643 -85.44643,-14.45536 -46.70536,-46.5 -212.80357,-217.79464 -212.80357,-217.79464 0,0 -28.61607,-29.125 -74.61607,-3.91071 -42,23.00893 -104.30357,56.66071 -130.63393,69.95535 -9.33036,6.78572 -20.65179,10.79465 -32.91071,10.79465 -31.75893,0 -57.49108,-26.71429 -57.49108,-59.67857 0,-25.83036 15.83929,-47.76786 37.98215,-56.0625 59.90178,-37.58929 184.6875,-110.26786 236.77678,-138.97322 31.80357,-17.5 54.70536,-19 98.33036,19.04464 53.75893,46.95536 101.54464,89.66072 101.54464,89.66072 0,0 22.375,10.70536 40.45536,8.08036 C 880.875,248.07405 1000,217.94905 1000,217.94905 z M 339.16071,750.11869 c 8.03572,-21.41071 5.33929,-45.42857 -10.08035,-61.83928 -13.86607,-14.78572 -34.03572,-18.67858 -53.33929,-14.08929 5.38393,-19.79464 2.41964,-40.875 -11.53571,-55.78571 -13.91965,-14.75 -34.03572,-18.625 -53.33036,-14.03572 5.33036,-19.79464 2.375,-40.875 -11.54464,-55.80357 -21.83036,-23.25 -59.58929,-22.23214 -84.375,2.3125 -24.669646,24.58036 -40.500003,69.02679 -18.45536,95.11607 22.00893,26.07143 47.20536,10.23214 66.5,5.66964 -5.33036,19.79465 -21.40179,38.24108 -1.66964,64.16965 19.70535,26 47.20535,10.25 66.49107,5.64285 -5.375,19.77679 -20.75,40.0625 -1.69643,64.16072 19.16071,24.08036 50.58036,11.25 71.27679,4.58928 -8,21.38393 -25.11608,44.33036 -3.125,70.25 21.95535,25.90146 72.75,13.83929 97.58928,-10.70535 C 416.65179,825.22583 419,786.35083 397.25,763.10083 c -15,-15.98214 -37.41964,-19.69642 -58.08929,-12.98214 z M 791.10714,585.89548 c -178.38393,-185.03572 -94.375,-97.91072 -190.71428,-198.02679 0,0 -29.04465,-30 -67.25,-12.58928 -26.83036,12.20535 -61.375,28.83035 -87.41965,41.5 -28.625,15.49107 -53.58035,20.25 -58.79464,20.25 -55.20536,0 -100,-46.41965 -100,-103.66072 0,-37.125 19.00893,-69.45536 47.33036,-87.79464 39.83036,-28.58036 131.58036,-79.25 131.58036,-79.25 0,0 -27.91072,-36.75 -89.16965,-36.75 -61.19643,0 -189.03571,86.95536 -189.03571,86.95536 0,0 -36.28572,24.125 -87.991073,2.41964 L 0,182.94905 v 359.3125 c 0,0 28.428571,8.59821 54,19.38393 5.830357,-17.04465 15.044643,-32.88393 28.053571,-45.875 42.410719,-41.91965 112.669639,-42.375 151.285719,-1.16965 11.58928,12.46429 19.71428,27.53572 23.88392,43.96429 15.58929,5 29.57143,13.77679 40.94643,25.90179 11.63393,12.375 19.72322,27.45535 23.92857,43.91071 15.58929,5.01786 29.54465,13.79464 40.95536,25.96429 12.79464,13.60714 21.29464,30.20535 25.33036,48.17857 16.19643,4.91964 30.95536,13.94643 42.78571,26.61607 23.11607,24.65178 31.41965,58.1875 26.38393,90.53571 0,0.0179 0,0.0179 0,0.0179 l 0,0 c 0,0.0179 0,0.0179 0,0.0357 0.0446,0.0536 0.11607,0.0893 0.16964,0.16072 0.875,1.00893 14.44643,16.84821 23.05358,25.75893 17.125,17.79464 44.99107,17.75 62.11607,0 17.08035,-17.73215 17.14285,-46.66965 0,-64.45536 -0.55357,-0.57143 -1.22322,-0.98214 -1.79465,-1.52679 0.0179,-0.13392 0.0893,-0.26785 0.10715,-0.39285 -57.72322,-59.875 -60.72322,-64.20536 -55.00893,-70.125 5.70536,-5.91965 14.16071,7.125 78.74107,74.17857 0.29464,0.29464 0.69643,0.54464 1.1875,0.75 1.29464,1.88393 2.58036,3.77678 4.20536,5.44643 17.08035,17.78571 44.99107,17.75 62.11607,0 17.08928,-17.74107 17.125,-46.66965 0,-64.46429 -0.91072,-0.9375 -1.92857,-1.66071 -2.88393,-2.5 -0.83929,-1.01786 -1.67857,-2.04464 -2.69643,-3.08928 -58.92857,-61.08036 -65.625,-72.71429 -61.125,-77.375 5.125,-5.33036 32.57143,25.91964 91.20536,86.71428 0.125,0 0.24107,-0.0357 0.38393,-0.0357 17.17857,16.23214 43.875,15.83035 60.49107,-1.38393 15.99107,-16.58929 16.84821,-42.88393 2.875,-60.77679 -0.25893,-1.19643 -0.71429,-2.23214 -1.47322,-3.01785 -74.20535,-77.05358 -71.03571,-78.20536 -66.53571,-82.86608 4.5,-4.66071 4.83036,-4.98214 77.04464,69.92858 0.26786,0.30357 0.45536,0.67857 0.75,0.98214 17.08929,17.78571 45.00893,17.75 62.13393,0 17.07143,-17.74107 17.125,-46.67857 0,-64.47322 -0.5,-0.46428 -1.03571,-0.80357 -1.50893,-1.26785 z"
   id="path3169"
   inkscape:connector-curvature="0" />
</svg>