<?xml version="1.0" encoding="UTF-8" standalone="no"?>
<!-- Generator: Adobe Illustrator 17.1.0, SVG Export Plug-In . SVG Version: 6.00 Build 0)  -->

<svg
   xmlns:dc="http://purl.org/dc/elements/1.1/"
   xmlns:cc="http://creativecommons.org/ns#"
   xmlns:rdf="http://www.w3.org/1999/02/22-rdf-syntax-ns#"
   xmlns:svg="http://www.w3.org/2000/svg"
   xmlns="http://www.w3.org/2000/svg"
   xmlns:sodipodi="http://sodipodi.sourceforge.net/DTD/sodipodi-0.dtd"
   xmlns:inkscape="http://www.inkscape.org/namespaces/inkscape"
   version="1.1"
   id="Layer_1"
   x="0px"
   y="0px"
   width="1000px"
   height="1000px"
   viewBox="0 0 1000 1000"
   enable-background="new 0 0 1000 1000"
   xml:space="preserve"
   inkscape:version="0.48.5 r10040"
   sodipodi:docname="job.svg"><metadata
   id="metadata3248"><rdf:RDF><cc:Work
       rdf:about=""><dc:format>image/svg+xml</dc:format><dc:type
         rdf:resource="http://purl.org/dc/dcmitype/StillImage" /></cc:Work></rdf:RDF></metadata><defs
   id="defs3246" /><sodipodi:namedview
   pagecolor="#ffffff"
   bordercolor="#666666"
   borderopacity="1"
   objecttolerance="10"
   gridtolerance="10"
   guidetolerance="10"
   inkscape:pageopacity="0"
   inkscape:pageshadow="2"
   inkscape:window-width="1920"
   inkscape:window-height="1018"
   id="namedview3244"
   showgrid="false"
   inkscape:zoom="0.6675088"
   inkscape:cx="161.26512"
   inkscape:cy="405.10829"
   inkscape:window-x="-8"
   inkscape:window-y="-8"
   inkscape:window-maximized="1"
   inkscape:current-layer="Layer_1" />

<g
   id="g4098"
   transform="matrix(2.3140475,0,0,2.3140475,-92.395292,-92.39616)">
	<path
   id="path4100"
   d="m 458.527,393.12 -75.125,-75.125 c -8.295,-8.29 -18.949,-12.763 -29.799,-13.443 l -25.518,-25.519 c 37.908,-60.273 30.656,-141.031 -21.773,-193.46 -60.859,-60.86 -159.883,-60.858 -220.74,0 -60.859,60.858 -60.859,159.882 0.002,220.739 52.428,52.433 133.186,59.686 193.461,21.772 l 25.514,25.519 c 0.684,10.85 5.154,21.505 13.445,29.795 l 75.127,75.127 c 18.061,18.063 47.342,18.061 65.406,-0.002 18.057,-18.056 18.061,-47.34 0,-65.403 z M 285.789,259.132 c -2.193,-9.704 -5.543,-17.818 -10.809,-19.913 l -44.955,-17.923 -10.527,-8.87 c -2.779,-2.35 -6.887,-2.177 -9.465,0.388 l -14.637,14.554 -14.676,-14.559 c -2.582,-2.56 -6.682,-2.726 -9.461,-0.383 l -10.525,8.87 -44.957,17.926 c -5.043,2.008 -8.326,9.54 -10.518,18.7 -29.24,-42.746 -24.906,-101.724 13.016,-139.647 42.822,-42.826 112.506,-42.826 155.332,0.004 38.284,38.28 42.342,98.016 12.182,140.853 z"
   inkscape:connector-curvature="0" />
	<path
   id="path4102"
   d="m 195.559,101.052 v -0.01 c -0.043,0 -0.076,0.006 -0.125,0.006 v -0.006 c -0.014,0 -0.037,0 -0.051,0.006 -0.023,-0.006 -0.045,-0.006 -0.061,-0.006 v 0.006 c -0.047,0 -0.08,-0.006 -0.121,-0.006 v 0.01 c -27.947,0.746 -45.104,16.564 -44.822,44.236 0.426,39.886 17.229,64.082 44.865,63.658 v 0.008 c 0.023,0 0.049,0 0.072,0 0.014,0 0.025,0 0.049,0 0,0 0.006,0 0.018,0 h 0.012 c 0.016,0 0.033,0 0.033,0 0.033,0 0.057,0 0.08,0 v -0.008 c 27.637,0.424 44.443,-23.772 44.871,-63.658 0.285,-27.671 -16.873,-43.49 -44.82,-44.236 z"
   inkscape:connector-curvature="0" />
</g></svg>