<?xml version="1.0" encoding="UTF-8" standalone="no"?>
<!-- Generator: Adobe Illustrator 18.0.0, SVG Export Plug-In . SVG Version: 6.00 Build 0)  -->

<svg
   xmlns:dc="http://purl.org/dc/elements/1.1/"
   xmlns:cc="http://creativecommons.org/ns#"
   xmlns:rdf="http://www.w3.org/1999/02/22-rdf-syntax-ns#"
   xmlns:svg="http://www.w3.org/2000/svg"
   xmlns="http://www.w3.org/2000/svg"
   xmlns:sodipodi="http://sodipodi.sourceforge.net/DTD/sodipodi-0.dtd"
   xmlns:inkscape="http://www.inkscape.org/namespaces/inkscape"
   version="1.1"
   id="Capa_1"
   x="0px"
   y="0px"
   viewBox="0 0 1000 1000"
   xml:space="preserve"
   inkscape:version="0.48.5 r10040"
   width="100%"
   height="100%"
   sodipodi:docname="shop-sell.svg"><metadata
   id="metadata3428"><rdf:RDF><cc:Work
       rdf:about=""><dc:format>image/svg+xml</dc:format><dc:type
         rdf:resource="http://purl.org/dc/dcmitype/StillImage" /></cc:Work></rdf:RDF></metadata><defs
   id="defs3426" /><sodipodi:namedview
   pagecolor="#ffffff"
   bordercolor="#666666"
   borderopacity="1"
   objecttolerance="10"
   gridtolerance="10"
   guidetolerance="10"
   inkscape:pageopacity="0"
   inkscape:pageshadow="2"
   inkscape:window-width="1920"
   inkscape:window-height="1018"
   id="namedview3424"
   showgrid="false"
   inkscape:zoom="0.60512821"
   inkscape:cx="-2.4788136"
   inkscape:cy="511.46186"
   inkscape:window-x="-8"
   inkscape:window-y="-8"
   inkscape:window-maximized="1"
   inkscape:current-layer="Capa_1" />
<g
   id="g3386"
   transform="matrix(2.5641035,0,0,2.5641035,-1.2340378e-4,0.00109955)">
	<path
   d="m 161.319,322.763 c -17.201,0 -31.136,13.934 -31.136,31.12 0,17.189 13.935,31.124 31.136,31.124 17.184,0 31.121,-13.935 31.121,-31.124 0,-17.187 -13.937,-31.12 -31.121,-31.12 z"
   id="path3388"
   inkscape:connector-curvature="0" />
	<path
   d="m 275.685,322.763 c -17.193,0 -31.13,13.934 -31.13,31.12 0,17.189 13.937,31.124 31.13,31.124 17.192,0 31.118,-13.935 31.118,-31.124 0,-17.187 -13.926,-31.12 -31.118,-31.12 z"
   id="path3390"
   inkscape:connector-curvature="0" />
	<path
   d="m 387.262,112.516 c -2.899,-4.223 -7.699,-6.751 -12.833,-6.751 h -53.464 c -1.198,-4.189 -3.082,-8.227 -5.667,-11.932 L 265.261,22.105 C 257.784,11.389 245.521,4.992 232.455,4.992 c -13.066,0 -25.33,6.397 -32.807,17.114 l -50.037,71.727 c -2.584,3.705 -4.469,7.741 -5.667,11.931 H 96.162 L 80.165,64.914 C 78.086,59.621 74.36,55.145 69.532,52.155 L 40.111,33.933 C 27.782,26.295 11.58,30.097 3.94,42.436 -3.699,54.773 0.107,70.97 12.442,78.61 l 21.976,13.611 75.851,196.541 c 2.313,6.012 8.092,9.975 14.532,9.975 h 187.39 c 6.44,0 12.22,-3.963 14.527,-9.975 L 388.964,126.91 c 1.839,-4.781 1.204,-10.168 -1.702,-14.394 z m -91.391,11.141 c -2.585,4.955 -7.71,8.062 -13.299,8.062 h -21.036 v 62.143 c 0,8.284 -6.716,15 -15,15 h -28 c -8.284,0 -15,-6.716 -15,-15 V 131.718 H 182.5 c -5.589,0 -10.714,-3.107 -13.299,-8.063 -2.585,-4.955 -2.201,-10.936 0.996,-15.52 l 50.036,-71.726 c 2.806,-4.021 7.399,-6.418 12.303,-6.418 4.903,0 9.497,2.396 12.303,6.418 l 50.036,71.727 c 3.197,4.586 3.581,10.566 0.996,15.521 z"
   id="path3392"
   inkscape:connector-curvature="0" />
</g>
<g
   id="g3394"
   transform="translate(0,610)">
</g>
<g
   id="g3396"
   transform="translate(0,610)">
</g>
<g
   id="g3398"
   transform="translate(0,610)">
</g>
<g
   id="g3400"
   transform="translate(0,610)">
</g>
<g
   id="g3402"
   transform="translate(0,610)">
</g>
<g
   id="g3404"
   transform="translate(0,610)">
</g>
<g
   id="g3406"
   transform="translate(0,610)">
</g>
<g
   id="g3408"
   transform="translate(0,610)">
</g>
<g
   id="g3410"
   transform="translate(0,610)">
</g>
<g
   id="g3412"
   transform="translate(0,610)">
</g>
<g
   id="g3414"
   transform="translate(0,610)">
</g>
<g
   id="g3416"
   transform="translate(0,610)">
</g>
<g
   id="g3418"
   transform="translate(0,610)">
</g>
<g
   id="g3420"
   transform="translate(0,610)">
</g>
<g
   id="g3422"
   transform="translate(0,610)">
</g>
</svg>