<?xml version="1.0" encoding="UTF-8" standalone="no"?>
<!-- Generator: Adobe Illustrator 18.0.0, SVG Export Plug-In . SVG Version: 6.00 Build 0)  -->

<svg
   xmlns:dc="http://purl.org/dc/elements/1.1/"
   xmlns:cc="http://creativecommons.org/ns#"
   xmlns:rdf="http://www.w3.org/1999/02/22-rdf-syntax-ns#"
   xmlns:svg="http://www.w3.org/2000/svg"
   xmlns="http://www.w3.org/2000/svg"
   xmlns:sodipodi="http://sodipodi.sourceforge.net/DTD/sodipodi-0.dtd"
   xmlns:inkscape="http://www.inkscape.org/namespaces/inkscape"
   version="1.1"
   id="Capa_1"
   x="0px"
   y="0px"
   viewBox="0 0 1000 1000"
   xml:space="preserve"
   inkscape:version="0.48.5 r10040"
   width="100%"
   height="100%"
   sodipodi:docname="shop-buy.svg"><metadata
   id="metadata3338"><rdf:RDF><cc:Work
       rdf:about=""><dc:format>image/svg+xml</dc:format><dc:type
         rdf:resource="http://purl.org/dc/dcmitype/StillImage" /></cc:Work></rdf:RDF></metadata><defs
   id="defs3336" /><sodipodi:namedview
   pagecolor="#ffffff"
   bordercolor="#666666"
   borderopacity="1"
   objecttolerance="10"
   gridtolerance="10"
   guidetolerance="10"
   inkscape:pageopacity="0"
   inkscape:pageshadow="2"
   inkscape:window-width="1920"
   inkscape:window-height="1018"
   id="namedview3334"
   showgrid="false"
   inkscape:zoom="0.60512821"
   inkscape:cx="-2.4788136"
   inkscape:cy="511.46186"
   inkscape:window-x="-8"
   inkscape:window-y="-8"
   inkscape:window-maximized="1"
   inkscape:current-layer="Capa_1" />
<g
   id="g3296"
   transform="matrix(2.5641051,0,0,2.5641051,-7.4070597e-4,-4.945e-4)">
	<path
   d="m 161.319,322.763 c -17.201,0 -31.136,13.933 -31.136,31.12 0,17.189 13.935,31.124 31.136,31.124 17.184,0 31.121,-13.936 31.121,-31.124 0.001,-17.187 -13.937,-31.12 -31.121,-31.12 z"
   id="path3298"
   inkscape:connector-curvature="0" />
	<path
   d="m 275.685,322.763 c -17.193,0 -31.13,13.933 -31.13,31.12 0,17.189 13.937,31.124 31.13,31.124 17.192,0 31.118,-13.936 31.118,-31.124 0,-17.187 -13.926,-31.12 -31.118,-31.12 z"
   id="path3300"
   inkscape:connector-curvature="0" />
	<path
   d="m 387.262,112.516 c -2.899,-4.223 -7.699,-6.75 -12.833,-6.75 h -55.336 c -0.321,-0.715 -0.653,-1.428 -1.02,-2.13 -6.301,-12.079 -18.138,-19.99 -31.5,-21.305 V 44.993 c 0,-22.056 -17.944,-40 -40,-40 h -28 c -22.056,0 -40,17.944 -40,40 V 82.33 c -13.362,1.315 -25.199,9.226 -31.5,21.305 -0.366,0.702 -0.698,1.415 -1.02,2.13 H 96.162 L 80.165,64.913 C 78.086,59.62 74.36,55.145 69.532,52.155 L 40.111,33.934 C 27.782,26.295 11.58,30.097 3.94,42.436 -3.699,54.773 0.108,70.97 12.442,78.61 l 21.976,13.612 75.851,196.541 c 2.313,6.011 8.092,9.975 14.532,9.975 h 187.39 c 6.44,0 12.22,-3.964 14.527,-9.975 l 62.246,-161.852 c 1.839,-4.782 1.204,-10.169 -1.702,-14.395 z m -92.35,18.203 -50.036,71.726 c -2.806,4.021 -7.399,6.418 -12.303,6.418 -4.903,0 -9.497,-2.396 -12.303,-6.418 l -50.036,-71.727 c -3.197,-4.584 -3.581,-10.564 -0.996,-15.52 2.585,-4.955 7.71,-8.063 13.299,-8.063 h 21.036 V 44.993 c 0,-8.284 6.716,-15 15,-15 h 28 c 8.284,0 15,6.716 15,15 v 62.144 h 21.036 c 5.589,0 10.714,3.107 13.299,8.063 2.585,4.954 2.201,10.935 -0.996,15.519 z"
   id="path3302"
   inkscape:connector-curvature="0" />
</g>
<g
   id="g3304"
   transform="translate(0,610)">
</g>
<g
   id="g3306"
   transform="translate(0,610)">
</g>
<g
   id="g3308"
   transform="translate(0,610)">
</g>
<g
   id="g3310"
   transform="translate(0,610)">
</g>
<g
   id="g3312"
   transform="translate(0,610)">
</g>
<g
   id="g3314"
   transform="translate(0,610)">
</g>
<g
   id="g3316"
   transform="translate(0,610)">
</g>
<g
   id="g3318"
   transform="translate(0,610)">
</g>
<g
   id="g3320"
   transform="translate(0,610)">
</g>
<g
   id="g3322"
   transform="translate(0,610)">
</g>
<g
   id="g3324"
   transform="translate(0,610)">
</g>
<g
   id="g3326"
   transform="translate(0,610)">
</g>
<g
   id="g3328"
   transform="translate(0,610)">
</g>
<g
   id="g3330"
   transform="translate(0,610)">
</g>
<g
   id="g3332"
   transform="translate(0,610)">
</g>
</svg>