<?xml version="1.0" encoding="UTF-8" standalone="no"?>
<!-- Generator: Adobe Illustrator 16.0.0, SVG Export Plug-In . SVG Version: 6.00 Build 0)  -->

<svg
   xmlns:dc="http://purl.org/dc/elements/1.1/"
   xmlns:cc="http://creativecommons.org/ns#"
   xmlns:rdf="http://www.w3.org/1999/02/22-rdf-syntax-ns#"
   xmlns:svg="http://www.w3.org/2000/svg"
   xmlns="http://www.w3.org/2000/svg"
   xmlns:sodipodi="http://sodipodi.sourceforge.net/DTD/sodipodi-0.dtd"
   xmlns:inkscape="http://www.inkscape.org/namespaces/inkscape"
   version="1.1"
   id="Layer_1"
   x="0px"
   y="0px"
   width="1000"
   height="1000"
   viewBox="0 0 1000 1000"
   enable-background="new 0 0 32 32"
   xml:space="preserve"
   inkscape:version="0.48.5 r10040"
   sodipodi:docname="support.svg"><metadata
   id="metadata3446"><rdf:RDF><cc:Work
       rdf:about=""><dc:format>image/svg+xml</dc:format><dc:type
         rdf:resource="http://purl.org/dc/dcmitype/StillImage" /></cc:Work></rdf:RDF></metadata><defs
   id="defs3444" /><sodipodi:namedview
   pagecolor="#ffffff"
   bordercolor="#666666"
   borderopacity="1"
   objecttolerance="10"
   gridtolerance="10"
   guidetolerance="10"
   inkscape:pageopacity="0"
   inkscape:pageshadow="2"
   inkscape:window-width="1920"
   inkscape:window-height="1018"
   id="namedview3442"
   showgrid="false"
   inkscape:zoom="0.4609375"
   inkscape:cx="-358.31573"
   inkscape:cy="442.51601"
   inkscape:window-x="-8"
   inkscape:window-y="-8"
   inkscape:window-maximized="1"
   inkscape:current-layer="Layer_1" />
<path
   d="M 854.76373,147.65526 C 660.16753,-48.273359 343.62353,-49.351982 147.66319,145.24422 -48.297155,339.84042 -49.312329,656.38442 145.22042,852.34476 339.84835,1048.2734 656.39235,1049.352 852.35269,854.7558 1048.2813,660.1596 1049.3282,343.6156 854.76373,147.65526 z M 716.57314,124.46488 610.51916,229.7892 C 540.47215,201.17398 461.57408,200.88846 391.33671,229.02782 L 286.01239,122.97384 C 419.28573,47.406807 583.83912,47.977843 716.57314,124.46488 z M 229.06747,608.67124 123.01349,713.99556 C 47.414735,580.72222 47.985771,416.13711 124.50453,283.37136 l 105.35604,106.05398 c -28.64695,70.04702 -28.90074,149.00853 -0.7931,219.2459 z m 54.34354,266.86391 106.0857,-105.32432 c 70.01529,28.61522 148.97681,28.90074 219.18245,0.76138 L 714.00348,877.02619 C 580.76187,952.59321 416.14503,952.0539 283.41101,875.53515 z M 659.12063,660.25477 c -88.3836,87.74912 -231.61834,87.24153 -319.39918,-1.11034 -87.74912,-88.35188 -87.24153,-231.61834 1.14207,-319.36746 88.3836,-87.74911 231.61834,-87.27325 319.36745,1.07863 87.74912,88.35188 87.27326,231.61833 -1.11034,319.39917 z M 770.1553,610.54296 c 28.61523,-70.04702 28.93247,-148.97681 0.76138,-219.21417 L 876.97066,286.00447 c 75.56703,133.24161 75.02772,297.82672 -1.49104,430.62419 L 770.1553,610.54296 z"
   id="path3440"
   inkscape:connector-curvature="0" />
</svg>