<?xml version="1.0" encoding="UTF-8" standalone="no"?>
<!-- Generator: Adobe Illustrator 17.1.0, SVG Export Plug-In . SVG Version: 6.00 Build 0)  -->

<svg
   xmlns:dc="http://purl.org/dc/elements/1.1/"
   xmlns:cc="http://creativecommons.org/ns#"
   xmlns:rdf="http://www.w3.org/1999/02/22-rdf-syntax-ns#"
   xmlns:svg="http://www.w3.org/2000/svg"
   xmlns="http://www.w3.org/2000/svg"
   xmlns:sodipodi="http://sodipodi.sourceforge.net/DTD/sodipodi-0.dtd"
   xmlns:inkscape="http://www.inkscape.org/namespaces/inkscape"
   version="1.1"
   id="Layer_1"
   x="0px"
   y="0px"
   width="1000px"
   height="1000px"
   viewBox="0 0 1000 1000"
   enable-background="new 0 0 1000 1000"
   xml:space="preserve"
   inkscape:version="0.48.5 r10040"
   sodipodi:docname="toolbox.svg"><metadata
   id="metadata3523"><rdf:RDF><cc:Work
       rdf:about=""><dc:format>image/svg+xml</dc:format><dc:type
         rdf:resource="http://purl.org/dc/dcmitype/StillImage" /></cc:Work></rdf:RDF></metadata><defs
   id="defs3521" /><sodipodi:namedview
   pagecolor="#ffffff"
   bordercolor="#666666"
   borderopacity="1"
   objecttolerance="10"
   gridtolerance="10"
   guidetolerance="10"
   inkscape:pageopacity="0"
   inkscape:pageshadow="2"
   inkscape:window-width="1920"
   inkscape:window-height="1018"
   id="namedview3519"
   showgrid="false"
   inkscape:zoom="0.6675088"
   inkscape:cx="425.30247"
   inkscape:cy="428.39132"
   inkscape:window-x="-8"
   inkscape:window-y="-8"
   inkscape:window-maximized="1"
   inkscape:current-layer="Layer_1" />
<g
   id="g3509"
   transform="matrix(1.0526316,0,0,1.0526316,-26.3158,-58.085274)">
	<path
   d="M 950.164,845.895 V 628.494 c -2.041,0.226 -4.11,0.352 -6.209,0.352 H 801.812 v 26.635 c 0,13.969 -4.554,27.328 -12.824,37.615 -9.415,11.713 -22.949,18.43 -37.131,18.43 h -58.229 c -14.183,0 -27.717,-6.718 -37.131,-18.43 -8.27,-10.288 -12.824,-23.647 -12.824,-37.615 V 628.846 H 356.328 v 26.635 c 0,13.969 -4.554,27.328 -12.824,37.615 -9.415,11.713 -22.949,18.43 -37.131,18.43 h -58.229 c -14.183,0 -27.717,-6.718 -37.131,-18.43 -8.27,-10.288 -12.824,-23.647 -12.824,-37.615 V 628.846 H 56.046 c -2.1,0 -4.169,-0.126 -6.209,-0.352 v 217.401 c 0,17.146 13.9,31.046 31.046,31.046 h 838.235 c 17.146,-10e-4 31.046,-13.9 31.046,-31.046 z"
   id="path3511"
   inkscape:connector-curvature="0" />
	<path
   d="m 49.836,603.224 c 2.006,0.407 4.083,0.622 6.209,0.622 h 142.142 v -51.635 c 0,-13.969 4.554,-27.328 12.824,-37.615 9.415,-11.713 22.949,-18.43 37.131,-18.43 h 58.229 c 14.183,0 27.717,6.718 37.131,18.43 8.27,10.288 12.824,23.647 12.824,37.615 v 51.635 H 643.67 v -51.635 c 0,-13.969 4.554,-27.328 12.824,-37.615 9.415,-11.713 22.949,-18.43 37.131,-18.43 h 58.229 c 14.183,0 27.717,6.718 37.131,18.43 8.27,10.288 12.824,23.647 12.824,37.615 v 51.635 h 142.142 c 2.126,0 4.203,-0.215 6.209,-0.622 C 964.334,600.347 975,587.82 975,572.8 V 380.208 c 0,-17.146 -13.899,-31.046 -31.046,-31.046 H 748.401 v -12.5 -12.5 -87.699 c 0,-29.248 -23.795,-53.042 -53.042,-53.042 H 304.641 c -29.247,0 -53.042,23.794 -53.042,53.042 v 87.699 12.5 12.5 H 56.046 C 38.9,349.162 25,363.062 25,380.208 V 572.8 c 0,15.02 10.666,27.547 24.836,30.424 z M 301.599,336.663 v -12.5 -66.167 c 11.012,15.659 32.91,26.528 57.678,26.528 10.658,0 20.783,-2.015 29.739,-5.557 11.002,-4.352 23.336,-4.352 34.339,0 8.956,3.542 19.08,5.557 29.738,5.557 10.658,0 20.783,-2.015 29.738,-5.557 11.002,-4.352 23.336,-4.352 34.339,0 8.956,3.542 19.081,5.557 29.738,5.557 10.658,0 20.783,-2.015 29.738,-5.557 11.002,-4.352 23.337,-4.352 34.339,0 8.956,3.542 19.08,5.557 29.738,5.557 24.768,0 46.666,-10.869 57.678,-26.528 v 66.167 12.5 12.5 H 301.599 v -12.5 z"
   id="path3513"
   inkscape:connector-curvature="0" />
	<path
   d="m 751.857,686.526 c 13.783,0 24.956,-13.9 24.956,-31.046 v -26.635 -12.5 -12.5 -51.635 c 0,-17.146 -11.173,-31.046 -24.956,-31.046 h -58.229 c -13.783,0 -24.956,13.9 -24.956,31.046 v 51.635 12.5 12.5 26.635 c 0,17.146 11.173,31.046 24.956,31.046 h 58.229 z"
   id="path3515"
   inkscape:connector-curvature="0" />
	<path
   d="m 306.373,686.526 c 13.783,0 24.956,-13.9 24.956,-31.046 v -26.635 -12.5 -12.5 -51.635 c 0,-17.146 -11.173,-31.046 -24.956,-31.046 h -58.229 c -13.783,0 -24.956,13.9 -24.956,31.046 v 51.635 12.5 12.5 26.635 c 0,17.146 11.173,31.046 24.956,31.046 h 58.229 z"
   id="path3517"
   inkscape:connector-curvature="0" />
</g>
</svg>