<?xml version="1.0" encoding="UTF-8" standalone="no"?>
<!-- Created with Inkscape (http://www.inkscape.org/) -->

<svg
   xmlns:dc="http://purl.org/dc/elements/1.1/"
   xmlns:cc="http://creativecommons.org/ns#"
   xmlns:rdf="http://www.w3.org/1999/02/22-rdf-syntax-ns#"
   xmlns:svg="http://www.w3.org/2000/svg"
   xmlns="http://www.w3.org/2000/svg"
   xmlns:sodipodi="http://sodipodi.sourceforge.net/DTD/sodipodi-0.dtd"
   xmlns:inkscape="http://www.inkscape.org/namespaces/inkscape"
   width="500"
   height="500"
   id="svg24522"
   version="1.1"
   inkscape:version="0.48.5 r10040"
   sodipodi:docname="sfairadmin-shadowed.svg">
  <defs
     id="defs24524">
    <filter
       style="color-interpolation-filters:sRGB;"
       inkscape:label="Drop Shadow"
       id="filter5065">
      <feFlood
         flood-opacity="0.5"
         flood-color="rgb(0,0,0)"
         result="flood"
         id="feFlood5067" />
      <feComposite
         in="flood"
         in2="SourceGraphic"
         operator="in"
         result="composite1"
         id="feComposite5069" />
      <feGaussianBlur
         in="composite"
         stdDeviation="10"
         result="blur"
         id="feGaussianBlur5071" />
      <feOffset
         dx="10"
         dy="10"
         result="offset"
         id="feOffset5073" />
      <feComposite
         in="SourceGraphic"
         in2="offset"
         operator="over"
         result="composite2"
         id="feComposite5075" />
    </filter>
  </defs>
  <sodipodi:namedview
     id="base"
     pagecolor="#006699"
     bordercolor="#666666"
     borderopacity="1.0"
     inkscape:pageopacity="0.4"
     inkscape:pageshadow="2"
     inkscape:zoom="1.116739"
     inkscape:cx="394.6196"
     inkscape:cy="165.50349"
     inkscape:document-units="px"
     inkscape:current-layer="layer1"
     showgrid="true"
     inkscape:window-width="1920"
     inkscape:window-height="1058"
     inkscape:window-x="1912"
     inkscape:window-y="-8"
     inkscape:window-maximized="1">
    <inkscape:grid
       type="xygrid"
       id="grid24530"
       empspacing="5"
       visible="true"
       enabled="true"
       snapvisiblegridlinesonly="true" />
  </sodipodi:namedview>
  <metadata
     id="metadata24527">
    <rdf:RDF>
      <cc:Work
         rdf:about="">
        <dc:format>image/svg+xml</dc:format>
        <dc:type
           rdf:resource="http://purl.org/dc/dcmitype/StillImage" />
      </cc:Work>
    </rdf:RDF>
  </metadata>
  <g
     inkscape:label="Calque 1"
     inkscape:groupmode="layer"
     id="layer1"
     transform="translate(0,-552.36215)">
    <rect
       rx="0"
       ry="0"
       y="557.36212"
       x="5.0000305"
       height="490"
       width="489.99994"
       id="rect11503-1"
       style="fill:#333333;fill-opacity:1;stroke:#333333;stroke-width:9.99999809;stroke-linecap:butt;stroke-linejoin:miter;stroke-miterlimit:4;stroke-opacity:1;stroke-dasharray:none;stroke-dashoffset:0"
       inkscape:export-filename="C:\Users\jbennani\Desktop\jbennani_logo_01.png"
       inkscape:export-xdpi="900"
       inkscape:export-ydpi="900" />
    <g
       id="g4986"
       style="filter:url(#filter5065)">
      <path
         style="fill:#ffffff;fill-opacity:1"
         d="m 377.219,835.44324 c -17.54315,-16.12549 -57.39023,-5.76527 -78.3015,-17.18921 -7.30127,-3.98876 -9.78354,-19.56699 -9.78354,-19.56699 l -29.35044,29.35044 9.78354,156.53584 -19.56699,19.56698 -19.56699,-19.56698 9.78345,-156.53584 -29.35044,-29.35044 c 0,0 -2.51219,15.57873 -9.78345,19.56699 -20.93436,11.48216 -55.18721,1.06844 -72.76037,17.23228 -41.276175,37.96617 -54.42503,158.87045 -54.42503,158.87045 0,0 42.80274,-1.33775 53.8092,4.77694 11.00647,6.1146 -9.78344,19.6818 14.67522,24.5735 24.45877,4.8918 191.5844,4.8548 215.23672,0 23.65242,-4.8547 3.46729,-18.4496 14.67522,-24.5735 11.20813,-6.12392 53.8092,-4.77694 53.8092,-4.77694 0,0 -7.56838,-120.9371 -48.8838,-158.91352 z"
         id="path11355"
         inkscape:connector-curvature="0"
         sodipodi:nodetypes="sscccccccsscszzscs" />
      <path
         inkscape:connector-curvature="0"
         id="path11359"
         d="m 307.76952,722.86 c 6.78115,1.22251 14.54529,-5.65345 17.74376,-16.09213 1.56181,-5.09958 1.70651,-10.09438 0.75845,-14.22594 -5.26924,2.70946 -11.44163,5.51374 -18.37746,8.15833 -2.79929,1.06782 -5.71832,2.09073 -8.76211,3.07373 -14.72991,4.7453 -32.18925,8.31302 -51.73433,8.31302 -19.10099,0 -36.1811,-3.79725 -50.64655,-8.93675 -3.24837,-1.15265 -6.33706,-2.37016 -9.306,-3.63258 -6.46679,-2.74938 -12.31983,-5.66842 -17.35954,-8.52758 -1.39715,4.39103 -1.4171,10.01953 0.34929,15.77777 3.11863,10.18919 10.59336,16.97533 17.25475,16.16199 0.33432,12.42462 1.08279,23.70658 2.6446,27.04975 3.95193,8.4727 37.83772,44.43923 42.82753,46.93414 4.98981,2.4949 29.93885,2.70447 34.30493,0 4.36608,-2.70448 35.34281,-37.9425 38.35666,-46.93414 1.18258,-3.53777 1.72148,-14.77981 1.94602,-27.11961 z"
         style="fill:#ffffff;fill-opacity:1" />
      <g
         style="fill:#cc0000;fill-opacity:1"
         id="g3880">
        <path
           style="fill:#cc0000;fill-opacity:1"
           inkscape:connector-curvature="0"
           id="path11361"
           d="m 337.71336,652.20931 c -3.07871,4.98981 -10.4287,12.32981 -26.7803,19.19579 -0.31436,0.12974 -3.82718,1.66161 -4.91496,-1.14267 -1.19756,-3.07871 0.6836,-5.06964 1.956,-5.59856 16.03725,-6.73125 17.59906,-13.54234 19.95425,-16.73083 -2.62963,-10.17422 -9.4507,-41.69484 -50.48688,-54.52363 v 58.7999 c 0,8.25314 -6.71629,14.96942 -14.96943,14.96942 H 237.523 c -8.25314,0 -14.96942,-6.71628 -14.96942,-14.96942 v -59.01946 c -34.88375,9.98461 -47.18363,41.62499 -50.66153,55.327 0.13473,0.14969 0.28442,0.28941 0.37923,0.47403 0.015,0.0299 0.18961,0.33432 0.5389,0.82332 1.76639,2.48492 8.44275,10.33888 26.66553,17.99325 1.2724,0.52892 2.84419,2.74938 1.32729,5.92789 -1.71649,3.58767 -4.36608,2.53482 -4.68044,2.40509 -16.48633,-6.92087 -24.1856,-14.97941 -27.49883,-18.93133 h -15.92747 v 10.60334 c 0,0 8.77208,7.54958 23.70159,15.56321 3.40305,1.82627 7.1005,3.66252 11.12228,5.45386 1.35723,0.60377 2.74939,1.20254 4.17647,1.79134 15.31871,6.30712 34.34984,11.48654 55.80602,11.48654 21.4911,0 47.91214,-7.41984 63.24083,-13.04336 1.51191,-0.55387 2.99887,-1.11772 4.43594,-1.68655 4.9449,-1.96599 8.2731,-4.00183 12.26495,-5.98278 13.34274,-6.62647 19.85943,-12.55436 19.85943,-12.55436 v -16.63103 h -9.59041 z" />
        <path
           style="fill:#cc0000;fill-opacity:1"
           inkscape:connector-curvature="0"
           id="path11363"
           d="m 237.523,657.19912 h 24.94904 c 2.75438,0 4.98981,-2.23544 4.98981,-4.98981 v -61.36965 -8.48767 c 0,-2.75437 -2.23543,-4.98981 -4.98981,-4.98981 H 237.523 c -2.75437,0 -4.98981,2.23544 -4.98981,4.98981 v 9.22616 60.63116 c 0,2.75437 2.23544,4.98981 4.98981,4.98981 z" />
      </g>
    </g>
  </g>
</svg>
