<?xml version="1.0" encoding="UTF-8" standalone="no"?>
<!-- Created with Inkscape (http://www.inkscape.org/) -->

<svg
   xmlns:dc="http://purl.org/dc/elements/1.1/"
   xmlns:cc="http://creativecommons.org/ns#"
   xmlns:rdf="http://www.w3.org/1999/02/22-rdf-syntax-ns#"
   xmlns:svg="http://www.w3.org/2000/svg"
   xmlns="http://www.w3.org/2000/svg"
   xmlns:sodipodi="http://sodipodi.sourceforge.net/DTD/sodipodi-0.dtd"
   xmlns:inkscape="http://www.inkscape.org/namespaces/inkscape"
   width="500"
   height="500"
   id="svg24522"
   version="1.1"
   inkscape:version="0.48.5 r10040"
   sodipodi:docname="sfairadmin.svg">
  <defs
     id="defs24524" />
  <sodipodi:namedview
     id="base"
     pagecolor="#ffffff"
     bordercolor="#666666"
     borderopacity="1.0"
     inkscape:pageopacity="0.0"
     inkscape:pageshadow="2"
     inkscape:zoom="0.13959238"
     inkscape:cx="-1326.6315"
     inkscape:cy="1217.5571"
     inkscape:document-units="px"
     inkscape:current-layer="layer1"
     showgrid="true"
     inkscape:window-width="1920"
     inkscape:window-height="1018"
     inkscape:window-x="-8"
     inkscape:window-y="-8"
     inkscape:window-maximized="1">
    <inkscape:grid
       type="xygrid"
       id="grid24530"
       empspacing="5"
       visible="true"
       enabled="true"
       snapvisiblegridlinesonly="true" />
  </sodipodi:namedview>
  <metadata
     id="metadata24527">
    <rdf:RDF>
      <cc:Work
         rdf:about="">
        <dc:format>image/svg+xml</dc:format>
        <dc:type
           rdf:resource="http://purl.org/dc/dcmitype/StillImage" />
        <dc:title />
      </cc:Work>
    </rdf:RDF>
  </metadata>
  <g
     inkscape:label="Calque 1"
     inkscape:groupmode="layer"
     id="layer1"
     transform="translate(0,-552.36215)">
    <path
       style="fill:#333333;fill-opacity:1"
       d="m 377.21904,835.44313 c -17.54315,-16.1255 -57.39024,-5.76527 -78.30151,-17.18922 -7.30127,-3.98876 -9.78355,-19.56699 -9.78355,-19.56699 l -29.35044,29.35044 9.78355,156.53587 -19.567,19.56697 -19.567,-19.56697 9.78345,-156.53587 -29.35044,-29.35044 c 0,0 -2.51219,15.57873 -9.78345,19.56699 -20.93436,11.48217 -55.18722,1.06844 -72.76039,17.23228 -41.276179,37.96619 -54.425037,158.87049 -54.425037,158.87049 0,0 42.802747,-1.33775 53.809217,4.77694 11.00646,6.11468 -9.78345,19.68188 14.67522,24.57348 24.45877,4.8918 191.58443,4.8549 215.23676,0 23.65243,-4.8547 3.46729,-18.4496 14.67522,-24.57348 11.20813,-6.12393 53.80922,-4.77694 53.80922,-4.77694 0,0 -7.56839,-120.93713 -48.88382,-158.91355 z"
       id="path11329-4"
       inkscape:connector-curvature="0"
       sodipodi:nodetypes="sscccccccsscszzscs" />
    <path
       inkscape:connector-curvature="0"
       id="path11333-5"
       d="m 307.76955,722.85996 c 6.78115,1.22251 14.5453,-5.65345 17.74376,-16.09213 1.56181,-5.09959 1.70652,-10.09439 0.75845,-14.22595 -5.26923,2.70947 -11.44163,5.51374 -18.37746,8.15834 -2.79929,1.06782 -5.71832,2.09073 -8.76211,3.07372 -14.72992,4.74531 -32.18926,8.31302 -51.73434,8.31302 -19.10099,0 -36.18111,-3.79724 -50.64657,-8.93674 -3.24836,-1.15265 -6.33705,-2.37016 -9.30599,-3.63259 -6.46679,-2.74938 -12.31984,-5.66842 -17.35955,-8.52758 -1.39714,4.39103 -1.4171,10.01954 0.34929,15.77778 3.11863,10.18919 10.59337,16.97533 17.25476,16.16199 0.33432,12.42462 1.08279,23.70658 2.6446,27.04976 3.95193,8.47269 37.83772,44.43924 42.82753,46.93414 4.98981,2.49491 29.93886,2.70448 34.30494,0 4.36608,-2.70447 35.34282,-37.94251 38.35667,-46.93414 1.18258,-3.53778 1.72148,-14.77982 1.94602,-27.11962 z"
       style="fill:#333333;fill-opacity:1" />
    <g
       id="g3916"
       style="fill:#cc0000;fill-opacity:1">
      <path
         style="fill:#cc0000;fill-opacity:1"
         inkscape:connector-curvature="0"
         id="path11335-1"
         d="m 337.7134,652.20925 c -3.07872,4.98981 -10.4287,12.32982 -26.78031,19.1958 -0.31436,0.12973 -3.82718,1.66161 -4.91496,-1.14267 -1.19756,-3.07871 0.6836,-5.06964 1.956,-5.59856 16.03725,-6.73126 17.59906,-13.54235 19.95425,-16.73083 -2.62963,-10.17423 -9.4507,-41.69485 -50.48689,-54.52365 v 58.79991 c 0,8.25315 -6.71628,14.96943 -14.96943,14.96943 h -24.94904 c -8.25315,0 -14.96943,-6.71628 -14.96943,-14.96943 v -59.01946 c -34.88376,9.98461 -47.18364,41.62499 -50.66154,55.327 0.13473,0.1497 0.28442,0.28941 0.37923,0.47404 0.015,0.0299 0.18961,0.33431 0.5389,0.82331 1.76639,2.48493 8.44276,10.33889 26.66554,17.99326 1.2724,0.52892 2.84419,2.74938 1.32729,5.92789 -1.7165,3.58767 -4.36608,2.53482 -4.68044,2.40509 -16.48633,-6.92087 -24.18561,-14.97941 -27.49884,-18.93134 h -15.92747 v 10.60335 c 0,0 8.77208,7.54958 23.70159,15.56321 3.40305,1.82627 7.1005,3.66252 11.12229,5.45386 1.35723,0.60377 2.74938,1.20255 4.17647,1.79134 15.31871,6.30712 34.34984,11.48655 55.80602,11.48655 21.49111,0 47.91215,-7.41985 63.24085,-13.04337 1.51191,-0.55386 2.99887,-1.11771 4.43594,-1.68655 4.9449,-1.96599 8.2731,-4.00183 12.26495,-5.98278 13.34275,-6.62647 19.85944,-12.55436 19.85944,-12.55436 v -16.63104 h -9.59041 z" />
      <path
         style="fill:#cc0000;fill-opacity:1"
         inkscape:connector-curvature="0"
         id="path11337-7"
         d="m 237.52302,657.19906 h 24.94904 c 2.75438,0 4.98981,-2.23543 4.98981,-4.98981 v -61.36966 -8.48767 c 0,-2.75437 -2.23543,-4.98981 -4.98981,-4.98981 h -24.94904 c -2.75438,0 -4.98981,2.23544 -4.98981,4.98981 v 9.22616 60.63117 c 0,2.75438 2.23543,4.98981 4.98981,4.98981 z" />
    </g>
  </g>
</svg>
