<?xml version="1.0" encoding="UTF-8" standalone="no"?>
<!-- Created with Inkscape (http://www.inkscape.org/) -->

<svg
   xmlns:dc="http://purl.org/dc/elements/1.1/"
   xmlns:cc="http://creativecommons.org/ns#"
   xmlns:rdf="http://www.w3.org/1999/02/22-rdf-syntax-ns#"
   xmlns:svg="http://www.w3.org/2000/svg"
   xmlns="http://www.w3.org/2000/svg"
   xmlns:sodipodi="http://sodipodi.sourceforge.net/DTD/sodipodi-0.dtd"
   xmlns:inkscape="http://www.inkscape.org/namespaces/inkscape"
   width="500"
   height="500"
   id="svg24522"
   version="1.1"
   inkscape:version="0.48.5 r10040"
   sodipodi:docname="sfairbot.svg">
  <defs
     id="defs24524">
	
	
</defs>
  <sodipodi:namedview
     id="base"
     pagecolor="#ffffff"
     bordercolor="#666666"
     borderopacity="1.0"
     inkscape:pageopacity="0.0"
     inkscape:pageshadow="2"
     inkscape:zoom="2.2334781"
     inkscape:cx="352.67312"
     inkscape:cy="213.3463"
     inkscape:document-units="px"
     inkscape:current-layer="layer1"
     showgrid="true"
     inkscape:window-width="1920"
     inkscape:window-height="1058"
     inkscape:window-x="1912"
     inkscape:window-y="-8"
     inkscape:window-maximized="1">
    <inkscape:grid
       type="xygrid"
       id="grid24530"
       empspacing="5"
       visible="true"
       enabled="true"
       snapvisiblegridlinesonly="true" />
  </sodipodi:namedview>
  <metadata
     id="metadata24527">
    <rdf:RDF>
      <cc:Work
         rdf:about="">
        <dc:format>image/svg+xml</dc:format>
        <dc:type
           rdf:resource="http://purl.org/dc/dcmitype/StillImage" />
        <dc:title />
      </cc:Work>
    </rdf:RDF>
  </metadata>
  <g
     inkscape:label="Calque 1"
     inkscape:groupmode="layer"
     id="layer1"
     transform="translate(0,-552.36215)">
    <path
       style="fill:#333333;fill-opacity:1"
       d="m 377.21904,835.44313 c -17.54315,-16.1255 -57.39024,-5.76527 -78.30151,-17.18922 -7.30127,-3.98876 -9.78355,-19.56699 -9.78355,-19.56699 l -29.35044,29.35044 9.78355,156.53587 -19.567,19.56697 -19.567,-19.56697 9.78345,-156.53587 -29.35044,-29.35044 c 0,0 -2.51219,15.57873 -9.78345,19.56699 -20.93436,11.48217 -55.18722,1.06844 -72.76039,17.23228 -41.276179,37.96619 -54.425037,158.87049 -54.425037,158.87049 0,0 42.802747,-1.33775 53.809217,4.77694 11.00646,6.11468 -9.78345,19.68188 14.67522,24.57348 24.45877,4.8918 191.58443,4.8549 215.23676,0 23.65243,-4.8547 3.46729,-18.4496 14.67522,-24.57348 11.20813,-6.12393 53.80922,-4.77694 53.80922,-4.77694 0,0 -7.56839,-120.93713 -48.88382,-158.91355 z"
       id="path11329-4"
       inkscape:connector-curvature="0"
       sodipodi:nodetypes="sscccccccsscszzscs" />
    <path
       d="m 212.23548,628.41735 c -4.31761,0 -7.82178,3.50415 -7.82178,7.82178 l 0,25.90964 -15.15468,0 c -16.48049,0 -29.82053,13.58446 -29.82053,30.06495 l 0,76.50675 c 0,16.48049 13.34004,29.82053 29.82053,29.82053 l 15.39912,0 0,18.82115 15.64355,0 0,-18.82115 60.12991,0 0,18.82115 15.64355,0 0,-18.82115 14.66584,0 c 16.48048,0 29.82052,-13.34004 29.82052,-29.82053 l 0,-76.50675 c 0,-16.48049 -13.34004,-30.06495 -29.82052,-30.06495 l -14.91027,0 0,-25.90964 c 0,-4.31763 -3.51197,-7.82178 -7.82177,-7.82178 l -75.77347,0 z m 7.82178,15.64355 60.12991,0 0,18.08787 -60.12991,0 0,-18.08787 z m -30.55381,33.73142 19.55444,0 c 0.9699,0.4302 2.04344,0.7329 3.17759,0.7329 l 75.77347,0 c 1.13416,0 2.19988,-0.30349 3.1776,-0.7329 l 19.55444,0 c 7.85306,0 14.17697,6.56833 14.17697,14.4214 l 0,76.50675 c 0,7.85307 -6.32391,14.17698 -14.17697,14.17698 l -22.48761,0 -75.77346,0 -22.97647,0 c -7.85307,0 -14.42141,-6.32391 -14.42141,-14.17698 l 0,-76.50675 c 0,-7.85307 6.56834,-14.4214 14.42141,-14.4214 z m 111.21589,16.62127 c -4.3098,0 -7.82178,3.50416 -7.82178,7.82178 l 0,35.44243 c 0,4.32544 3.51198,7.82177 7.82178,7.82177 4.32544,0 7.82177,-3.50415 7.82177,-7.82177 l 0,-35.44243 c 0,-4.31762 -3.49633,-7.82178 -7.82177,-7.82178 z"
       id="path3048"
       inkscape:connector-curvature="0"
       style="fill:#333333;fill-opacity:1;stroke:none" />
  </g>
</svg>
