<?xml version="1.0" encoding="UTF-8" standalone="no"?>
<!-- Created with Inkscape (http://www.inkscape.org/) -->

<svg
   xmlns:dc="http://purl.org/dc/elements/1.1/"
   xmlns:cc="http://creativecommons.org/ns#"
   xmlns:rdf="http://www.w3.org/1999/02/22-rdf-syntax-ns#"
   xmlns:svg="http://www.w3.org/2000/svg"
   xmlns="http://www.w3.org/2000/svg"
   xmlns:sodipodi="http://sodipodi.sourceforge.net/DTD/sodipodi-0.dtd"
   xmlns:inkscape="http://www.inkscape.org/namespaces/inkscape"
   width="500"
   height="500"
   id="svg24522"
   version="1.1"
   inkscape:version="0.48.5 r10040"
   sodipodi:docname="sfairbot-shadowed.svg">
  <defs
     id="defs24524">
    <filter
       style="color-interpolation-filters:sRGB;"
       inkscape:label="Drop Shadow"
       id="filter5617">
      <feFlood
         flood-opacity="0.5"
         flood-color="rgb(0,0,0)"
         result="flood"
         id="feFlood5619" />
      <feComposite
         in="flood"
         in2="SourceGraphic"
         operator="in"
         result="composite1"
         id="feComposite5621" />
      <feGaussianBlur
         in="composite"
         stdDeviation="10"
         result="blur"
         id="feGaussianBlur5623" />
      <feOffset
         dx="10"
         dy="10"
         result="offset"
         id="feOffset5625" />
      <feComposite
         in="SourceGraphic"
         in2="offset"
         operator="over"
         result="composite2"
         id="feComposite5627" />
    </filter>
  </defs>
  <sodipodi:namedview
     id="base"
     pagecolor="#006699"
     bordercolor="#666666"
     borderopacity="1.0"
     inkscape:pageopacity="0.4"
     inkscape:pageshadow="2"
     inkscape:zoom="0.78965375"
     inkscape:cx="110.8565"
     inkscape:cy="438.74686"
     inkscape:document-units="px"
     inkscape:current-layer="layer1"
     showgrid="true"
     inkscape:window-width="1920"
     inkscape:window-height="1018"
     inkscape:window-x="-8"
     inkscape:window-y="-8"
     inkscape:window-maximized="1">
    <inkscape:grid
       type="xygrid"
       id="grid24530"
       empspacing="5"
       visible="true"
       enabled="true"
       snapvisiblegridlinesonly="true" />
  </sodipodi:namedview>
  <metadata
     id="metadata24527">
    <rdf:RDF>
      <cc:Work
         rdf:about="">
        <dc:format>image/svg+xml</dc:format>
        <dc:type
           rdf:resource="http://purl.org/dc/dcmitype/StillImage" />
      </cc:Work>
    </rdf:RDF>
  </metadata>
  <g
     inkscape:label="Calque 1"
     inkscape:groupmode="layer"
     id="layer1"
     transform="translate(0,-552.36215)">
    <rect
       rx="0"
       ry="0"
       y="557.36212"
       x="5.0000305"
       height="490"
       width="489.99994"
       id="rect11503-1"
       style="fill:#333333;fill-opacity:1;stroke:#333333;stroke-width:9.99999809;stroke-linecap:butt;stroke-linejoin:miter;stroke-miterlimit:4;stroke-opacity:1;stroke-dasharray:none;stroke-dashoffset:0"
       inkscape:export-filename="C:\Users\jbennani\Desktop\jbennani_logo_01.png"
       inkscape:export-xdpi="900"
       inkscape:export-ydpi="900" />
    <g
       id="g5613"
       style="filter:url(#filter5617)">
      <path
         style="fill:#ffffff;fill-opacity:1"
         d="m 377.219,835.44324 c -17.54315,-16.12549 -57.39023,-5.76527 -78.3015,-17.18921 -7.30127,-3.98876 -9.78354,-19.56699 -9.78354,-19.56699 l -29.35044,29.35044 9.78354,156.53584 -19.56699,19.56698 -19.56699,-19.56698 9.78345,-156.53584 -29.35044,-29.35044 c 0,0 -2.51219,15.57873 -9.78345,19.56699 -20.93436,11.48216 -55.18721,1.06844 -72.76037,17.23228 -41.276175,37.96617 -54.42503,158.87045 -54.42503,158.87045 0,0 42.80274,-1.33775 53.8092,4.77694 11.00647,6.1146 -9.78344,19.6818 14.67522,24.5735 24.45877,4.8918 191.5844,4.8548 215.23672,0 23.65242,-4.8547 3.46729,-18.4496 14.67522,-24.5735 11.20813,-6.12392 53.8092,-4.77694 53.8092,-4.77694 0,0 -7.56838,-120.9371 -48.8838,-158.91352 z"
         id="path11355"
         inkscape:connector-curvature="0"
         sodipodi:nodetypes="sscccccccsscszzscs" />
      <path
         d="m 212.23548,628.41735 c -4.31761,0 -7.82178,3.50415 -7.82178,7.82178 l 0,25.90964 -15.15468,0 c -16.48049,0 -29.82053,13.58446 -29.82053,30.06495 l 0,76.50675 c 0,16.48049 13.34004,29.82053 29.82053,29.82053 l 15.39912,0 0,18.82115 15.64355,0 0,-18.82115 60.12991,0 0,18.82115 15.64355,0 0,-18.82115 14.66584,0 c 16.48048,0 29.82052,-13.34004 29.82052,-29.82053 l 0,-76.50675 c 0,-16.48049 -13.34004,-30.06495 -29.82052,-30.06495 l -14.91027,0 0,-25.90964 c 0,-4.31763 -3.51197,-7.82178 -7.82177,-7.82178 l -75.77347,0 z m 7.82178,15.64355 60.12991,0 0,18.08787 -60.12991,0 0,-18.08787 z m -30.55381,33.73142 19.55444,0 c 0.9699,0.4302 2.04344,0.7329 3.17759,0.7329 l 75.77347,0 c 1.13416,0 2.19988,-0.30349 3.1776,-0.7329 l 19.55444,0 c 7.85306,0 14.17697,6.56833 14.17697,14.4214 l 0,76.50675 c 0,7.85307 -6.32391,14.17698 -14.17697,14.17698 l -22.48761,0 -75.77346,0 -22.97647,0 c -7.85307,0 -14.42141,-6.32391 -14.42141,-14.17698 l 0,-76.50675 c 0,-7.85307 6.56834,-14.4214 14.42141,-14.4214 z m 111.21589,16.62127 c -4.3098,0 -7.82178,3.50416 -7.82178,7.82178 l 0,35.44243 c 0,4.32544 3.51198,7.82177 7.82178,7.82177 4.32544,0 7.82177,-3.50415 7.82177,-7.82177 l 0,-35.44243 c 0,-4.31762 -3.49633,-7.82178 -7.82177,-7.82178 z"
         id="path3836"
         inkscape:connector-curvature="0"
         style="fill:#ffffff;fill-opacity:1;stroke:none" />
    </g>
  </g>
</svg>
