<svg width="1000.0" height="1000" xmlns="http://www.w3.org/2000/svg"><path d="m1.2 525.3c-1.5-8.3-1.2-15.4-1.2-24v-2.3c136.1-11.7 284.4-46 394.8-124.9 31.6 14.6 62.8 12.6 92.6-2.2 62.6 63.2 124 107.1 206 132.8 8.4 21.4 21.7 37.8 40 49.2-22.1 55-53 103.5-92.7 145.5-58.6-42.3-136-11.7-162.4 49.2-183.4-2-368.2-82.2-477.1-223.3z m475.9 295.5c-93.6 48.3-192.3 74.4-292.9 68.7-77.7-65.3-133.7-150.5-162.4-239.4 126.2 108.6 294.1 170.5 455.3 170.7z m207.1-13.8c106.5-22.2 204.4-65 283.8-130.5-104.2 271.6-417.9 395.7-675.1 280.5 83.5-12 161.9-40.8 228.9-79 66.9 38.4 146.5-2 162.4-71z m196.8-279.4c41-3 81-6 119-12.6-0.1 10.2-1.1 20.3-1.1 29.8-71.5 91.4-179 153.9-286.1 183.2 40-48.5 69.6-102.4 90.4-156.9 32.7-4.2 59.3-19.2 77.8-43.5z m18.3-73.3c-4.5-33.9-21.5-61.5-48-79 8.4-77.7 9.7-153.6 3.4-226.8 80.1 82.8 128.6 188.4 141.9 293.2-29 6.1-61.4 10.3-97.3 12.6z m-557.2-131.7c-101 63.7-219.4 94.6-336.3 104.2 29.2-182.5 153.5-333.4 320.3-395.1 4.5 59.3 18.3 116.5 40.1 166.1-35 35.5-43.3 81-24.1 124.8z m196.8-84.7c52.7-65.4 96.5-132.3 121.3-210.7 42.7 14.5 81.2 33.2 115.6 56.1 11.9 94.3 13.6 188.2 4.5 276-41.4 7-74 32.2-88.1 68.7-61.1-22.2-111.2-63.4-155.6-107.7 11.2-28.7 11.6-55.6 2.3-82.4z m-106.4-67.6c-21.3-52.6-35.2-103.6-35.5-159.2 63.9-14.7 132.8-14.2 193.4-2.3-23.1 64.9-59.7 124.9-98.4 174.1-13.6-5.8-46.7-18.7-59.5-12.6z" /></svg>