<svg width="1000.0" height="1000" xmlns="http://www.w3.org/2000/svg"><path d="m459.3 0l134.9 288.6c1.9-73-59.1-245.3-134.9-288.6z m422.2 20.3c-1.9 0.2-4 2.4-6.3 6.8-30.6 56-83.4 89.2-132.8 103.1-50.2 14.1-102.5 47.7-121.6 85.9-22.4 51.9-12.8 93.2 9 140 27.4-4.1 54.9-14.7 78.2-25.9 59.6-29.1 111.3-74.6 144.9-127.8 13.5-21.5 16.2-17.6 4.5 6.5-21.9 45.4-93.7 109.1-183.9 163.1-20.1 12-20.4 12.4-11.3 20.2 28.8 25.2 60.5 40.4 89.2 42.8 124.5 0.6 177.9-132.8 181.4-225.5-0.9-60.2-11.1-137.9-47.9-187.3-1.1-1.4-2.2-2-3.4-1.9z m-453.9 258.8c-198.5 0-360.4 161.9-360.4 360.4 0 198.6 161.9 360.5 360.4 360.5 198.6 0 360.4-161.9 360.4-360.5 0-49.6-10-97.2-28.3-140.3l-75.6 31.9c14.1 33.3 21.9 69.9 21.9 108.4 0 149.8-117 271.1-265 278.1 171.3-117 248.8-419.9 157.2-612.5 7.3 132.1 1.3 491.8-203.3 610.9-138.7-16.1-245.7-133.3-245.7-276.5 0-154.2 124.2-278.3 278.4-278.3 38.6 0 75 7.7 108.3 21.8l32.1-75.5c-43.2-18.3-90.7-28.4-140.4-28.4z" /></svg>