<svg width="1000.0" height="1000" xmlns="http://www.w3.org/2000/svg"><path d="m718.3 105.8l230-96.6q20.9-15 36.3-6.7t15.4 34.2v921.6q0 17.5-12.1 29.6t-29.6 12.1h-166.6q-17.5 0-29.6-12.1t-12.1-29.6v-330.8q-3.3-0.8-9.2-4.2t-20-14.5-25-24.2-20-35-9.1-47.1v-299.2q0-25.8 15.4-54.1t36.2-43.4z m-260-105.8q18.4 0 28.8 10.4t12.1 20.4l0.8 10.9v375q0 23.3-8.7 49.6t-20.9 46.6-24.1 37.5-21.3 26.3l-8.3 9.1v372.5q0 17.5-12.1 29.6t-29.6 12.1h-166.7q-17.5 0-29.5-12.1t-12.1-29.6v-372.5q-3.4-3.3-9.2-9.6t-20-25.4-25-38.3-20-45.8-9.2-50v-375q0-1.7 0.5-4.6t3.3-10 7.1-12.5 12.1-10 18.7-4.6q16.7 0 27.1 10.4t12.1 20.4l2.5 10.9v291.6h83.3v-291.6-4.6t2.1-10 5.8-12.5 12.5-10 21.3-4.6q19.1 0 29.6 10.4t11.2 20.4l0.8 10.9v291.6h83.4v-291.6q0-1.7 0.4-4.6t2.5-10 5.8-12.5 12.5-10 20.4-4.6z" /></svg>