<svg width="1000.0" height="1000" xmlns="http://www.w3.org/2000/svg"><path d="m20.8 83.3h958.4q8.3 0 10.4 4.2t-4.6 10.8l-470 472.5q-6.7 6.7-15 6.7t-15-6.7l-470-472.5q-6.7-6.6-4.6-10.8t10.4-4.2z m-5.8 181.7l220 220q6.7 6.7 6.7 15t-6.7 15l-220 220q-6.7 6.7-10.8 4.6t-4.2-10.4v-458.4q0-8.3 4.2-10.4t10.8 4.6z m750 220l220-220q6.7-6.7 10.8-4.6t4.2 10.4v458.4q0 8.3-4.2 10.4t-10.8-4.6l-220-220q-6.7-6.7-6.7-15t6.7-15z m-83.3 113.3l303.3 303.4q6.7 6.6 4.6 10.8t-10.4 4.2h-958.4q-8.3 0-10.4-4.2t4.6-10.8l303.3-303.4q6.7-6.6 15-6.6t15 6.6l136.7 136.7q6.7 6.7 15 6.7t15-6.7l136.7-136.7q6.6-6.6 15-6.6t15 6.6z" /></svg>