<svg width="1000.0" height="1000" xmlns="http://www.w3.org/2000/svg"><path d="m833.3 155.8l90-95.8q1.7-0.8 4.2-1.7t10.8-1.6 17.1 0.8 20.9 7.9 23.7 17.9q18.3 18.4 22.5 35.9t0 26.6l-5 8.4-90 95.8z m-541.6-72.5h333.3q41.7 0 87.5 10.9l-155.8 155.8h-306.7q-34.2 0-58.8 24.6t-24.5 58.7v416.7q0 34.2 24.5 58.8t58.8 24.5h416.7q34.1 0 58.7-24.5t24.6-58.8v-151.7l166.7-166.6v276.6q0 137.5-77.9 214.6t-213.8 77.1h-333.3q-137.5 0-214.6-77.1t-77.1-214.6v-333.3q0-137.5 77.1-214.6t214.6-77.1z m549.1 247.5l-301.6 301.7-134.2 41.7 45.8-141.7 295.9-295.8z" /></svg>