<svg width="1000.0" height="1000" xmlns="http://www.w3.org/2000/svg"><path d="m291.7 83.3h333.3q17.5 0 29.6 12.1t12.1 29.6v83.3q0 17.5-12.1 29.6t-29.6 12.1h-375q-34.2 0-58.7 24.6t-24.6 58.7v416.7q0 34.2 24.6 58.8t58.7 24.5h375q17.5 0 29.6 12.1t12.1 29.6v83.3q0 17.5-12.1 29.6t-29.6 12.1h-333.3q-137.5 0-214.6-77.1t-77.1-214.6v-333.3q0-137.5 77.1-214.6t214.6-77.1z m490 194.2l270 236.7q13.3 11.6 13.3 27.5t-13.3 27.5l-270 236.6q-13.4 11.7-22.5 7.5t-9.2-21.6v-125h-208.3q-17.5 0-29.6-12.1t-12.1-29.6v-166.7q0-17.5 12.1-29.5t29.6-12.1h208.3v-125q0-17.5 9.2-21.7t22.5 7.5z" /></svg>