<svg width="1000.0" height="1000" xmlns="http://www.w3.org/2000/svg"><path d="m458.3 83.3h333.4q137.5 0 214.6 77.1t77 214.6v333.3q0 137.5-77 214.6t-214.6 77.1h-333.4q-17.5 0-29.5-12.1t-12.1-29.6v-83.3q0-17.5 12.1-29.6t29.5-12.1h375q34.2 0 58.8-24.6t24.6-58.7v-416.7q0-34.1-24.6-58.7t-58.8-24.6h-375q-17.5 0-29.5-12.1t-12.1-29.6v-83.3q0-17.5 12.1-29.6t29.5-12.1z m-176.6 194.2l270 236.7q13.3 11.6 13.3 27.5t-13.3 27.5l-270 236.6q-13.4 11.7-22.5 7.5t-9.2-21.6v-125h-208.3q-17.5 0-29.6-12.1t-12.1-29.6v-166.7q0-17.5 12.1-29.5t29.6-12.1h208.3v-125q0-17.5 9.2-21.7t22.5 7.5z" /></svg>