<svg width="1000.0" height="1000" xmlns="http://www.w3.org/2000/svg"><path d="m500 19.2q97.5 0 186.7 37.9t153.7 102.5 102.5 153.7 37.9 186.7-37.9 186.7-102.5 153.7-153.7 102.5-186.7 37.9-186.7-37.9-153.7-102.5-102.5-153.7-37.9-186.7 37.9-186.7 102.5-153.7 153.7-102.5 186.7-37.9z m-10 196.6q-24.2 0-49.2 4.6t-52.5 17.1-48.3 32.1-34.6 52.5-13.7 74.6q0 20.8 16.6 20.8h109.2q25 4.2 29.2-9.2 5-16.6 17.1-23.3t37.9-6.7q16.6 0 26.2 8.8t9.6 23.7q0 19.2-5.8 28.4t-21.7 15q-0.8 0-11.2 3.3t-16.3 6.3-16.7 8.7-18.3 14.2-15.4 20-12.9 29.1-6.7 38.4q-0.8 6.6 4.6 13.7t17.1 7.1h144.1q5.9 0 18.4-6.7t29.1-23.3 31.3-40 24.6-61.7 10-83.3q0-39.2-14.2-69.2t-35.4-47.5-49.6-28.7-53.3-15-49.2-3.8z m72.5 450.9h-125q-8.3 0-14.6 6.2t-6.2 14.6v125q0 8.3 6.2 14.6t14.6 6.2h125q8.3 0 14.6-6.2t6.2-14.6v-125q0-8.3-6.2-14.6t-14.6-6.2z" /></svg>