<svg width="875.0" height="1000" xmlns="http://www.w3.org/2000/svg"><path d="m437.5 64.5c242.2 0 437.5 195.3 437.5 437.5s-195.3 437.5-437.5 437.5-437.5-195.4-437.5-437.5 195.3-437.5 437.5-437.5z m210.9 583.9l-146.4-146.4 148.4-146.5c5.9-5.9 5.9-17.6 0-23.5l-43-41c-3.9-3.9-7.8-5.8-11.7-5.8s-5.9 1.9-9.8 5.8l-148.4 144.5-148.4-144.5c-3.9-3.9-5.9-5.8-9.8-5.8s-7.8 1.9-11.7 5.8l-41 41c-5.9 5.9-5.9 17.6 0 23.5l148.4 146.5-148.4 148.4c-3.9 1.9-3.9 5.9-3.9 9.8s0 7.8 3.9 11.7l41 42.9c3.9 4 7.8 4 11.7 4s7.8 0 11.7-4l146.5-148.4 148.4 146.5c3.9 3.9 5.9 5.9 9.8 5.9s7.8-2 11.7-5.9l41-41c3.9-2 5.9-7.8 5.9-11.7s-2-7.9-5.9-11.8z" /></svg>